<?xml version="1.0" encoding="utf-8"?>
<!-- Generator: Adobe Illustrator 26.5.0, SVG Export Plug-In . SVG Version: 6.00 Build 0)  -->
<svg version="1.1" id="Layer_1" xmlns="http://www.w3.org/2000/svg" xmlns:xlink="http://www.w3.org/1999/xlink" x="0px" y="0px"
	 viewBox="0 0 444.2 150" style="enable-background:new 0 0 444.2 150;" xml:space="preserve">
<style type="text/css">
	.st0{fill:#FFFFFF;}
</style>
<path class="st0" d="M347.4,28.8c-6.5,6-18.7,4.5-23.4-3.3c-6.6-11,8.9-20.7,18.1-19.2c7.5,1.2,10.2,7.9,9.1,15.3
	C350.7,24.6,349.3,27,347.4,28.8 M42.8,72.6c0,1.6-0.3,3.8-0.6,6.1l-4.7,29.9H24.7l4.5-28.9c0.1-0.8,0.3-1.9,0.3-2.9
	c-0.1-2-0.9-3.4-3.8-3.4c-2.8,0-5.6,1.4-7.8,3l-5.1,32.3H0l9.5-60.5h12.9l-3,18.8c3.2-2.2,7.8-4.2,13-4.2
	C40.1,62.7,42.8,66.6,42.8,72.6z M64.2,90c-0.8,0-1.6,0-2.4-0.1c0,6.4,3.1,9,9.2,9c4,0,7.8-1.5,11.2-3.2l-1.6,10.9
	c-3.4,1.7-8.1,2.9-13.5,2.9c-13.1,0-18.2-8.2-18.2-18.5c0-13.1,7.3-28.3,23.6-28.3c9,0,13.8,4.9,13.8,11.6C86.3,85.3,75,90,64.2,90z
	 M62.3,81.6c0.5,0.1,1.1,0.1,1.6,0.1c5,0,11.4-1.9,11.4-6.5c0-2.4-1.3-3.6-3.8-3.6C66.9,71.6,62.9,76.4,62.3,81.6z M90.1,91.6
	c0-13,6.6-28.9,20.7-28.9c3.9,0,7.4,1.2,10.1,3.6l1.1-2.9h11l-5.2,33.2c-0.3,2.1-0.1,3.7,1.9,3.7c1.2,0,2.6-0.4,3.6-0.7l-1.2,8.4
	c-2.4,0.8-4.9,1.3-7.7,1.3c-4.7,0-7.3-2-8.6-5c-2.9,2.5-6.3,4.9-12.3,4.9C95.3,109.4,90.1,103.4,90.1,91.6z M108.7,99.4
	c2.2,0,4.4-0.9,6-2.1l3.7-22.9c-1.5-1.3-3.3-2.1-5.3-2.1c-7.7,0-9.8,12.6-9.8,18.4C103.4,96.4,105,99.4,108.7,99.4z M147.2,48.1
	h12.9l-6.9,43.8c-0.2,1.1-0.3,2.3-0.3,3.4c0,2,0.6,3.6,3.1,3.6c1.4,0,4.2-0.3,6.6-1.4l-1.5,10.1c-3.6,1.4-7.3,1.9-10.5,1.9
	c-8.5,0-11.3-3.7-11.3-9.6c0-1.3,0.1-2.6,0.3-4L147.2,48.1z M185.1,72.5L181.7,93c-0.1,0.9-0.3,1.8-0.3,2.6c0,2.1,0.9,3.4,3.4,3.4
	c1.8,0,4.8-0.7,6.9-1.6l-1.4,10.2c-2.9,1.3-7.4,1.9-11.1,1.9c-8,0-11-4.1-11-9.5c0-1.5,0.2-2.7,0.3-3.9l3.8-23.6h-5.9l1.4-9h5.8
	l1.4-8.2l13.6-5.4l-2.2,13.5h9.5l-1.3,9h-9.5V72.5z M239.6,72.6c0,1.6-0.3,3.8-0.6,6.1l-4.7,29.9h-12.8l4.5-28.9
	c0.1-0.8,0.3-1.9,0.3-2.9c-0.1-2-0.9-3.4-3.8-3.4c-2.8,0-5.6,1.4-7.8,3l-5.1,32.3h-12.8l9.5-60.5h12.9l-3,18.8
	c3.2-2.2,7.8-4.2,13-4.2C236.9,62.7,239.6,66.6,239.6,72.6z M314.4,37.3c-2.8,4.4-9.9,4-11.5-1.8c-1.2-4,1.9-7.5,5.6-8.1
	c4.6-0.8,8.2,3.7,6.7,8.3C314.9,36.3,314.7,36.8,314.4,37.3 M267.8,63.2c-14.6,0-20.4,17.7-20.4,30.8c0,10.5,4.6,15.4,12,15.4
	c5.2,0,9.5-2.4,12.8-5.2l-0.7,4.4h5.3l9.5-60.5h-5.6l-2.9,19C274.9,65,272.2,63.2,267.8,63.2z M253.3,93.8c0-8.2,3.7-25.6,14-25.6
	c3.9,0,6.7,1.6,9.3,4l-4.3,27.6c-2.8,2.3-7.1,4.5-11.2,4.5C255.7,104.3,253.3,101.3,253.3,93.8z M298.2,64.1l-7,44.4h5.6l7-44.4
	H298.2z M298.9,53.5c0,2,1.2,3.4,3.2,3.4c2.9,0,4.6-2.4,4.6-4.9c0-1.9-1.1-3.2-3.4-3.2C300.6,48.8,298.9,51,298.9,53.5z M334.5,63.2
	c-4.5,0-8.5,2.6-11.7,5.6l0.8-4.7h-5.3l-7,44.4h5.6l5.4-34.2c2.6-2.5,6.8-5.7,10.2-5.7c2.9,0,3.6,1.6,4.4,4l5.1-2.4
	C341.3,66.9,339.3,63.2,334.5,63.2z M375.7,73.2c0-5.6-3.9-10-11.6-10c-15.5,0-21,17-21,28.9c0,9.6,3.6,17.4,14.7,17.4
	c5.6,0,9.5-1.2,12.3-2.6l0.8-5.5c-3.1,1.5-7.1,3.1-11.7,3.1c-7.5,0-10.4-4.7-10.4-12.1c0-1.4,0.1-2.9,0.3-4.5
	C359.3,87.7,375.7,85.6,375.7,73.2z M349.9,83.5c1-6.8,5.6-15.4,13-15.4c4.5,0,6.8,1.9,6.8,5.6C369.8,81.2,356.9,83.5,349.9,83.5z
	 M397.6,104.7c-7.5,0-10.3-4.4-10.3-13.1c0-8.3,3.6-23.4,14.3-23.4c5.1,0,7.1,4,7.6,8.7l5.2-1.2c-0.3-5.6-2.9-12.4-11.9-12.4
	c-15.6,0-21,16.3-21,29.3c0,9,3.6,17.1,15.4,17.1c5.1,0,9.5-1.2,12.6-2.7l0.8-5.5C406.4,103.3,401.8,104.7,397.6,104.7z M443.5,68.7
	l0.7-4.5h-11.6l1.7-10.4l-6.1,3.2l-1.2,7.2h-5.7l-0.7,4.5h5.7l-4.8,29.9c-0.2,1.2-0.3,2.3-0.3,3.3c0,4.9,2.2,7.7,7.9,7.7
	c3,0,6.4-0.8,8.2-1.7l0.8-5.1c-2,0.9-4.9,1.9-7.1,1.9c-3,0-4-1.4-4-4c0-1.3,0.3-2.9,0.5-4.5l4.4-27.4h11.6V68.7z M291.2,149.5
	L304,122h3.9l4.5,27.5h-2.6l-1.3-8.2h-10.8l-3.9,8.2H291.2z M298.8,138.8h9.4l-2.5-15L298.8,138.8z M316.6,146.1
	c0-0.8,0.1-1.9,0.2-2.6l2.2-13.9l2.6-0.3l-2.1,13.8c-0.1,0.7-0.2,1.6-0.2,2.2c0,1.5,0.9,2.3,2.9,2.3c2.3,0,4.7-1.5,6.5-2.9l2.4-15.3
	h2.6l-3.2,20.2h-2.6l0.3-2.3c-1.9,1.6-4.5,2.7-7,2.7C318.1,149.9,316.6,148.5,316.6,146.1z M335.8,146.1c1.1,0.8,3.4,1.8,5.5,1.8
	c2.8,0,4.9-1.1,4.9-3.8c0-5.2-8.6-3.1-8.6-9.4c0-3.6,2.6-5.9,6.7-5.9c2.6,0,4.8,1.1,6,2.3l-1.2,1.8c-1.5-1.2-3-1.9-5-1.9
	c-2.1,0-3.9,1.1-3.9,3.4c0,4.7,8.6,2.9,8.6,9.3c0,4.2-3.1,6.3-7.7,6.3c-2.4,0-5-0.9-5.7-1.4L335.8,146.1z M358.4,131.4l-2,12.4
	c-0.1,0.7-0.2,1.5-0.2,2.1c0,1.2,0.4,1.8,1.8,1.8c1,0,2.3-0.5,3.2-0.9l-0.3,2.3c-0.8,0.4-2.3,0.8-3.7,0.8c-2.6,0-3.6-1.3-3.6-3.5
	c0-0.5,0-1,0.1-1.5l2.2-13.6h-2.6l0.3-2.1h2.6l0.5-3.3l2.7-1.4l-0.8,4.7h5.3l-0.3,2.1L358.4,131.4L358.4,131.4z M379.1,132.1
	l-2.3,1.1c-0.3-1.1-0.7-1.8-2-1.8c-1.5,0-3.4,1.4-4.6,2.6l-2.4,15.5h-2.6l3.2-20.2h2.4l-0.3,2.1c1.5-1.4,3.2-2.6,5.3-2.6
	C377.9,128.9,378.8,130.6,379.1,132.1z M379.3,143c0-6,2.6-14.1,9.1-14.1c2.2,0,3.5,0.8,4.7,1.8l0.2-1.3h2.5l-2.7,16.5
	c-0.2,0.9-0.1,1.8,0.9,1.8c0.5,0,1.4-0.2,2-0.4l-0.3,2.3c-0.8,0.3-1.4,0.4-2.4,0.4c-1.7,0-2.4-1-2.6-2.1c-1.7,1.2-3.6,2.1-6,2.1
	C381.2,149.8,379.3,147.6,379.3,143z M385.6,147.5c1.9,0,3.8-1,5.1-2.1l1.9-12.5c-1.2-1.1-2.5-1.8-4.2-1.8c-4.7,0-6.4,7.9-6.4,11.6
	C382,146.2,383,147.5,385.6,147.5z M403.5,122h2.6l-3.5,22.3c-0.1,0.5-0.1,1-0.1,1.4c0,1.3,0.5,1.9,1.8,1.9c1,0,2.4-0.3,3.4-0.7
	l-0.4,2.4c-1,0.5-2.3,0.7-3.4,0.7c-3.2,0-4.1-1.3-4.1-3.5c0-0.5,0-1.1,0.2-1.7L403.5,122z M416.6,129.3l-3.2,20.2h-2.5l3.2-20.2
	H416.6z M416.4,122.3c1,0,1.5,0.6,1.5,1.5c0,1.1-0.8,2.2-2.1,2.2c-0.9,0-1.5-0.6-1.5-1.6C414.3,123.3,415.1,122.3,416.4,122.3z
	 M420.1,143c0-6,2.6-14.1,9.1-14.1c2.2,0,3.5,0.8,4.7,1.8l0.2-1.3h2.5l-2.7,16.5c-0.2,0.9-0.1,1.8,0.9,1.8c0.5,0,1.4-0.2,2-0.4
	l-0.3,2.3c-0.8,0.3-1.4,0.4-2.4,0.4c-1.7,0-2.4-1-2.6-2.1c-1.7,1.2-3.6,2.1-6,2.1C422,149.8,420.1,147.6,420.1,143z M426.4,147.5
	c1.9,0,3.8-1,5.1-2.1l1.9-12.5c-1.2-1.1-2.5-1.8-4.2-1.8c-4.7,0-6.4,7.9-6.4,11.6C422.8,146.2,423.9,147.5,426.4,147.5z M387.7,29.6
	c-1.9,1.2-4.1,2-6.8,2.2c-6.1,0.5-13.2-0.9-17.5-5.7c-5.5-6.3-5.3-15.5,0.5-21.2c7.3-7.1,20.7-6.1,26.8,2
	C395.6,13.5,395.2,24.8,387.7,29.6"/>
</svg>
