<?xml version="1.0" encoding="utf-8"?>
<!-- Generator: Adobe Illustrator 26.5.0, SVG Export Plug-In . SVG Version: 6.00 Build 0)  -->
<svg version="1.1" id="Layer_1" xmlns="http://www.w3.org/2000/svg" xmlns:xlink="http://www.w3.org/1999/xlink" x="0px" y="0px"
	 viewBox="0 0 64 64" style="enable-background:new 0 0 64 64;" xml:space="preserve">
<style type="text/css">
	.st0{fill:#EBEBEB;}
	.st1{fill:#F37677;}
</style>
<path class="st0" d="M32,64c17.7,0,32-14.3,32-32S49.7,0,32,0S0,14.3,0,32S14.3,64,32,64z"/>
<path class="st1" d="M45.4,37.9l-5.6-1.6c-0.1,0-0.2-0.1-0.3-0.1l-0.1,0c-0.3,0-0.7,0-1,0.1c-0.3,0.1-0.6,0.3-0.9,0.5l-1.7,1.6
	l-0.1,0.1c-0.1,0.1-0.8,0.8-1.9,0l-0.1-0.1c-3.3-2.2-6.1-5.1-8.3-8.4c0,0-0.6-0.9,0.1-1.6c0,0,1.5-1.6,1.9-2l0.1-0.1
	c0.1-0.1,0.7-0.8,0.4-2.3l-1.5-5.5c-0.1-0.3-0.2-0.6-0.5-0.9c-0.3-0.4-0.8-0.7-1.4-0.9l-0.1,0c-0.9-0.2-1.8-0.3-2.8-0.2
	c-0.3,0-0.5,0.1-0.8,0.2c-1.2,0.6-2.2,1.5-2.9,2.6s-1.1,2.4-1.1,3.8c0,1.8,0.3,3.5,0.9,5.2c0,0,1.3,4.1,4,7.3c0,0,4.1,5.3,9.5,8.5
	c2,1.1,4.2,2,6.5,2.6c0,0,3.1,0.7,5.5-0.2c0,0,3.1-1.1,4.2-3.7c0.1-0.3,0.2-0.5,0.2-0.8c0-0.9-0.1-1.7-0.3-2.5
	C47,39.7,46.6,38.2,45.4,37.9z"/>
</svg>
