<?xml version="1.0" encoding="utf-8"?>
<!-- Generator: Adobe Illustrator 26.5.0, SVG Export Plug-In . SVG Version: 6.00 Build 0)  -->
<svg version="1.1" id="Layer_1" xmlns="http://www.w3.org/2000/svg" xmlns:xlink="http://www.w3.org/1999/xlink" x="0px" y="0px"
	 viewBox="0 0 64 64" style="enable-background:new 0 0 64 64;" xml:space="preserve">
<style type="text/css">
	.st0{fill:#EBEBEB;}
	.st1{fill:#F37677;}
</style>
<path class="st0" d="M32,64c17.7,0,32-14.3,32-32S49.7,0,32,0S0,14.3,0,32S14.3,64,32,64z"/>
<path class="st1" d="M47.5,17.7h-31c-0.8,0-1.6,0.3-2.1,0.9s-0.9,1.3-0.9,2.1v21.8c0,0.8,0.3,1.6,0.9,2.1c0.6,0.6,1.3,0.9,2.1,0.9
	h11.3v1.3h-4.2c-0.2,0-0.4,0.1-0.5,0.2c-0.1,0.1-0.2,0.3-0.2,0.5v0.9c0,0.1,0,0.2,0.1,0.3c0,0.1,0.1,0.2,0.2,0.2
	c0.1,0.1,0.2,0.1,0.2,0.2c0.1,0,0.2,0.1,0.3,0.1h16.8c0.1,0,0.2,0,0.3-0.1c0.1,0,0.2-0.1,0.2-0.2c0.1-0.1,0.1-0.2,0.2-0.2
	c0-0.1,0.1-0.2,0.1-0.3v-0.9c0-0.2-0.1-0.4-0.2-0.5c-0.1-0.1-0.3-0.2-0.5-0.2h-4.2v-1.3h11.3c0.8,0,1.6-0.3,2.1-0.9
	c0.6-0.6,0.9-1.3,0.9-2.1V20.7c0-0.4-0.1-0.8-0.2-1.2c-0.2-0.4-0.4-0.7-0.7-1c-0.3-0.3-0.6-0.5-1-0.7C48.3,17.7,47.9,17.7,47.5,17.7
	z M48.2,42.5c0,0.2-0.1,0.4-0.2,0.5c-0.1,0.1-0.3,0.2-0.5,0.2h-4.7c-0.6-2.4-2-4.5-4-6c-1.9-1.5-4.3-2.4-6.8-2.4
	c-2.5,0-4.9,0.9-6.8,2.4c-1.9,1.5-3.3,3.6-4,6h-4.7c-0.2,0-0.4-0.1-0.5-0.2c-0.1-0.1-0.2-0.3-0.2-0.5V20.7c0-0.2,0.1-0.4,0.2-0.5
	c0.1-0.1,0.3-0.2,0.5-0.2h31c0.2,0,0.4,0.1,0.5,0.2c0.1,0.1,0.2,0.3,0.2,0.5L48.2,42.5z"/>
<path class="st1" d="M37.2,30.3c1.2-2.9-0.2-6.2-3.1-7.4c-2.9-1.2-6.2,0.2-7.4,3.1c-1.2,2.9,0.2,6.2,3.1,7.4
	C32.7,34.6,36,33.2,37.2,30.3z"/>
</svg>
