<?xml version="1.0" encoding="utf-8"?>
<!-- Generator: Adobe Illustrator 26.5.0, SVG Export Plug-In . SVG Version: 6.00 Build 0)  -->
<svg version="1.1" id="Layer_1" xmlns:v="https://vecta.io/nano"
	 xmlns="http://www.w3.org/2000/svg" xmlns:xlink="http://www.w3.org/1999/xlink" x="0px" y="0px" viewBox="0 0 246.1 45.2"
	 style="enable-background:new 0 0 246.1 45.2;" xml:space="preserve">
<style type="text/css">
	.st0{fill:#FFFFFF;}
	.st1{fill-rule:evenodd;clip-rule:evenodd;fill:#FFFFFF;}
</style>
<g>
	<g>
		<path class="st0" d="M14.2,20.3c0,0.9,0,1.8,0,2.7c0,0.3,0,0.8,0,1c0,0.6-0.2,1.3-0.5,1.8c-0.1,0.2-0.4,0.3-0.6,0.5
			c-0.6,0.4-1.5,0.5-2.2,0.7l-4.1,0.3c-0.7,0-1.4,0.2-2,0c-0.7,0.1-1.5-0.1-2.1,0.3c-0.1,0.1,0,0.2,0,0.3c0.9,0.6,2.1,0.1,3,0.3h7.5
			c0.6,0,1.1,0,1.5-0.3c1-0.5,1.5-1.5,2-2.5c0.2-0.3,0.3-0.8,0.4-1.1c0.2-0.6,0.8-1.1,1.4-1.2c0.1,1-0.1,2-0.3,2.9
			c-0.1,0.6-0.5,1.2-0.3,1.9c0.1,0.3,0.4,0.3,0.6,0.3h7c0.4,0.1,0.8,0.2,1.3,0.2c0-0.1,0.2-0.1,0.1-0.2c-0.1-0.2-0.2-0.5-0.5-0.5
			c0-0.1-0.2-0.1-0.3-0.1c-1.2-0.7-2.7-0.3-4.1-0.3c-0.7,0.1-1.5,0.2-2.1-0.2c-0.3-0.3-0.1-1.4-0.1-1.4c0-0.4,1-3.4,1.2-3.7
			c0-0.3,0.1-0.5,0.1-0.9c0.1-0.4,0.1-0.9,0.1-1.3c0.1-0.6,0.4-1.2,0.6-1.8l0.3-0.9c0.1-0.4,0.1-0.7,0.4-1c0.6,0.4,1.2,0.4,1.5,1.1
			l0.3,1.6c0,0.1,0.1,0.3,0.2,0.2c0.5-0.3,0.3-1,0.3-1.5c0.1-0.6-0.3-0.9-0.5-1.4c-0.1-0.1-0.4-0.6-0.4-0.6c-0.1-0.4-1-0.7-0.8-1.2
			c0.1-0.4,0.4-0.9,0.8-1.2l0.2-1.5l2.1,0.1c0.2,0.1,0.3,0.2,0.5,0.2l0.1-0.2l1.5-0.3c-0.7,0.1-1.1-0.7-1.7-0.7l0,0l0,0
			c-1.1-0.4-1.7,0.5-2.8,0.7c-0.1,0-0.4,0.1-0.4,0.1c-0.1-0.5-0.2-0.9-0.3-1.3C23,10,23,9.7,23,9.6C22.8,7.7,24.9,9,25.3,8
			c0.4-0.8-0.7-0.9-1-1.5V6.2c-0.3-0.3-0.6-0.4-0.8-0.8c0.1-0.5,0.2-1,0.1-1.5c0-0.1-0.1-0.3-0.3-0.2l-1,1.4
			c-0.4-0.3-0.7-0.6-1.1-0.8c-0.3,0-0.5-0.3-0.9-0.2c-0.1,0.1,0,0.2,0.1,0.3c0,0.8,0.4,1.3,0.9,1.9l0.1,0.3C21,7.3,21.1,8.2,21,9
			c-0.9,2.2-2.2,4.3-4.1,5.8c-1.1,1.2-2.3,2.4-2.5,4.1c0,0.3-0.1,0.4-0.1,0.8L14.2,20.3z M37.3,16.7c0.6,1,1.5,2.2,2.6,2.6
			c0.6,0.5,1.4,1.1,2.2,0.6c0.4-0.1,0.5,0.5,0.7,0.7c0.2,0.7-0.3,1.2-0.3,1.9l-0.5,1c-0.6,1.1-1.1,2.3-2,3.2c-0.3,0-0.5,0.3-0.7,0.3
			c-0.2,0.2-0.5,0.1-0.6,0.1c-0.6,0.2-1.4,0.1-1.8,0.6c0,0.1,0.1,0.1,0.2,0.1h3.7c0.2-0.1,0.3-0.2,0.3-0.4c-0.2-0.3,0.1-0.6,0.2-0.9
			c0.1-0.5,0.4-0.8,0.5-1.2l1.3-2.3l0.6-1c0.1-0.3,0.4-0.7,0.6-1.1c0.2-0.1,0.2-0.3,0.3-0.5c0-0.2-0.1-0.3-0.2-0.4
			c0.1-0.1,0.3-0.1,0.5-0.1c0.5,0.3,1,0.8,1.1,1.3l0.2,0.5l0.1,0.2v0.6l0.1,0.6c0.1,0.9-0.1,1.9-0.2,2.8c-0.3,1.1-1.6,1-2.5,1.2
			c-0.2,0.1-0.7,0.1-0.7,0.5c1.1,0.2,2.4,0.1,3.6,0.1c0.2-0.1,0.2-0.2,0.3-0.4c0-0.2,0.3-0.5,0.2-0.7c-0.2-0.3,0-0.7-0.1-1
			c0-0.1,0-0.2,0-0.4c0.2-0.5,0.1-1.2,0.2-1.8l0.1-0.7l0,0l0,0c0-0.4,0.1-0.7,0.1-1c0.1-0.1,0.1-0.2,0.1-0.4
			c0.5-0.6,1.4-0.4,2.1-0.4c0.3,0.1,0.6,0.1,1,0.2c0.1-0.1,0.3-0.1,0.5-0.1c0.6-0.3,0.2-1,0.2-1.6L50.9,19c-0.1-0.1-0.1-0.2-0.2-0.4
			c-0.1-0.1-0.2-0.4-0.3-0.5c-0.3-0.8-1-1.3-1.5-2c-1-1.3-2.5-2-4-2.5s-3,0.1-4.4,0.6c-0.4-0.1-0.6-0.4-0.7-0.8
			c-0.1-0.7,0.1-1.4,0.4-2c0.1-0.5,0.4-0.8,0.5-1.3C41,9,41.4,8,41.5,6.8c0-0.7-0.5-1.2-1-1.5c-0.4-0.1-0.8-0.1-1,0.2
			c-0.2,0.5-0.8,0.9-1.2,1.1c0,0.3,0.4,0.1,0.5,0.2C39.2,6.9,39.7,6.7,40,7c0,0.8-0.4,1.4-0.8,2c-0.6,1-1.4,2-1.7,3
			C37.1,13.2,37.3,16.7,37.3,16.7z"/>
		<path class="st0" d="M33.7,6.6h-5.6c-0.3,0-0.5,0.2-0.5,0.5s0.2,0.5,0.5,0.5h5.6c0.3,0,0.5-0.2,0.5-0.5
			C34.2,6.8,33.9,6.6,33.7,6.6z M29.7,7.4L29.7,7.4h-0.6c-0.3,0-0.8-0.7-0.3-0.7h0.5C29.7,6.7,30.3,7.4,29.7,7.4z M32,7.4h-0.5
			c-0.3,0-0.8-0.7-0.3-0.7h0.5C32,6.7,32.6,7.4,32,7.4z M33.7,7.4c-0.3,0-0.8-0.7-0.2-0.7h0.2C34.1,6.7,34.1,7.4,33.7,7.4z M30.8,0
			l0.7,1.6l1.7-0.5l-0.8,1.6l1.4,1L32,4l0.1,1.8l-1.3-1.2l-1.3,1.2L29.6,4l-1.7-0.3l1.4-1l-0.9-1.5l1.7,0.5C30.1,1.6,30.8,0,30.8,0z
			"/>
		<path class="st0" d="M25.4,22.3L25.4,22.3L25.4,22.3L25.4,22.3z M25.3,22.7c0,0.1,0.1,0.2,0.2,0.2s0.2-0.1,0.2-0.2
			c0,0-0.1-0.3-0.2-0.3L25.3,22.7z M33.4,21.1c-0.2,0.3-0.2,0.8-0.5,1c-0.1,0.1-0.1,0.2-0.1,0.3l0.1,0.1c0.2-0.1,0.7-0.2,0.7-0.6
			c0.1-0.2,0.2-0.3,0.3-0.5c0.2,0,0.3,0,0.4,0.2c0,0.3-0.2,0.5-0.5,0.5v0.1c0.1,0.1,0.3,0.1,0.4,0c0.3-0.2,0.4-0.6,0.7-0.7
			c0,0.2-0.4,0.2-0.1,0.4c0.2,0,0.4,0,0.5-0.2c-0.1-0.3,0.4-0.4,0.1-0.7c0-0.3,0.3-0.4,0.3-0.7c-0.1-0.3-0.4-0.3-0.5-0.6
			c0.1-0.1,0.3,0,0.4,0l0,0c0,0,0.1,0.1,0.2,0l0.1-0.3c0,0-0.1-0.1-0.2-0.1c-0.3,0.1-0.6,0.1-0.8,0.4c0,0.2,0.1,0.4,0.3,0.5
			c0.1,0,0.1,0.1,0.2,0.1c0,0.1,0,0.2-0.1,0.2c-0.2-0.2-0.6,0.1-0.8-0.2c0.1-0.3,0.2-0.6,0-0.8c0-0.1,0.1-0.1,0-0.2
			c-0.1-0.2-0.4,0-0.5,0c-0.3,0-0.5,0.1-0.7,0.3c0,0.1,0,0.2,0.1,0.3c0.1,0,0.1,0,0.1,0.1l-0.2,0.1c0,0,0,0.1,0.1,0.2
			c-0.1,0-0.2-0.1-0.3-0.2c0-0.1,0-0.4-0.2-0.4h-0.2c0,0.1-0.1,0.2-0.1,0.3s0.1,0.3,0.1,0.3S33.3,20.9,33.4,21.1z M27.7,24.3
			c0,0.1,0.1,0.2,0.2,0.2s0.2-0.1,0.2-0.2L27.9,24L27.7,24.3z M33.5,24.3c0,0.1,0.1,0.2,0.2,0.2c0.1,0,0.2-0.1,0.2-0.2L33.7,24
			C33.7,24,33.5,24.2,33.5,24.3z M30.6,26c0,0.1,0.1,0.2,0.2,0.2S31,26.1,31,26l-0.2-0.3C30.8,25.7,30.6,25.9,30.6,26z M33.7,23.9
			L33.7,23.9L33.7,23.9L33.7,23.9z M30.8,25.6L30.8,25.6L30.8,25.6L30.8,25.6z M30.7,11.6L30.7,11.6L30.7,11.6L30.7,11.6z
			 M30.7,12.1c0.1,0,0.2-0.1,0.2-0.2l-0.2-0.3l-0.2,0.3C30.5,12,30.6,12.1,30.7,12.1z M24.8,15.8c0,0.1,0.1,0.2,0.2,0.2
			s0.2-0.1,0.2-0.2c0,0-0.1-0.3-0.2-0.3L24.8,15.8z M27.8,12.1c0.1,0,0.2-0.1,0.2-0.2l-0.2-0.3l-0.2,0.3
			C27.7,12,27.7,12.1,27.8,12.1z M33.5,11.6L33.5,11.6L33.5,11.6L33.5,11.6z M33.5,12.1c0.1,0,0.2-0.1,0.2-0.2l-0.2-0.3l-0.2,0.3
			C33.4,12,33.5,12.1,33.5,12.1z M25,19.3L25,19.3L25,19.3L25,19.3z M24.8,19.6c0,0.1,0.1,0.2,0.2,0.2s0.2-0.1,0.2-0.2
			c0,0-0.1-0.3-0.2-0.3L24.8,19.6z M25,11.6L25,11.6L25,11.6L25,11.6z M25,12.1c0.1,0,0.2-0.1,0.2-0.2L25,11.6l-0.2,0.3
			C24.8,12,24.9,12.1,25,12.1z M25,15.5L25,15.5L25,15.5L25,15.5z M31,15l0.1-0.2h-0.2l-0.1-0.2l-0.1,0.2h-0.2l0.1,0.2l-0.1,0.1h0.2
			v0.2l0.2-0.1l0.2,0.1v-0.2h0.2L31,15z M30.9,17.1h-0.3l-0.2-0.3l-0.2,0.3h-0.3l0.1,0.3l-0.2,0.2l0.3,0.1V18l0.3-0.2l0.3,0.2v-0.3
			l0.3-0.1l-0.2-0.2L30.9,17.1z M31.7,16.8L31.7,16.8l-0.2-0.1l-0.1,0.1h-0.1v0.1L31.2,17h0.1v0.1l0.1-0.1l0.1,0.1V17h0.1L31.7,16.8
			L31.7,16.8z M29.7,22.7c0.3,0.7,1,0.3,1.6,0.4c0.3-0.2,0.6-0.4,0.7-0.6c0-0.3,0.1-0.7-0.1-1c-0.2-0.3-0.3-0.7-0.4-1.1
			c-0.1-0.5,0.5-0.1,0.6-0.5l0,0c-0.2-0.2-0.5-0.6-0.8-0.3c-0.2,0.2-0.3,0.4-0.2,0.6c0.1,0.5,0.3,0.9,0.4,1.4
			c-0.1-0.1-0.2-0.2-0.3-0.2c-0.4-0.5-1.1-0.3-1.5-0.8c-0.5,0,0.3,0.6-0.3,0.7c0,0.1,0.1,0.2,0.1,0.3c0,0-0.1,0-0.2,0.1
			C29.4,22.1,29.6,22.4,29.7,22.7z M34.3,15.4c0.2,0,0.6,0.2,0.6-0.1s-0.3-0.2-0.6-0.2s-0.6-0.1-0.6,0.2
			C33.7,15.5,34,15.4,34.3,15.4z M31.1,15.7l0.1,0.2L31,16.1h0.2v0.2l0.2-0.1l0.2,0.1v-0.2h0.2l-0.2-0.2l0.1-0.2h-0.2l-0.1-0.2
			l-0.1,0.2L31.1,15.7z M29.8,16.2v0.2l0.2-0.1l0.2,0.1v-0.2h0.2L30.2,16l0.1-0.2h-0.2L30,15.7l-0.1,0.2h-0.2l0.1,0.2l-0.1,0.1H29.8
			z M30.1,14c-0.1-0.1-0.2-0.2-0.2-0.4c0-0.6,0.5-0.1,0.7-0.7c0.2,0.7,0.7-0.1,0.7,0.7l0,0c0,0.2-0.1,0.3-0.2,0.4v0.2
			c0,0.1-0.1,0.1-0.1,0.1h-0.8c-0.1,0-0.1-0.1-0.1-0.1V14z M30.1,13.6c0,0.3,0.3,0.1,0.5,0.1s0.5,0.2,0.5-0.1c0-0.4-0.3-0.3-0.6-0.3
			C30.4,13.3,30.1,13.2,30.1,13.6z M36.4,15.8c0,0.1,0.1,0.2,0.2,0.2c0.1,0,0.2-0.1,0.2-0.2l-0.2-0.3C36.6,15.5,36.4,15.8,36.4,15.8
			z M36.6,11.9l-0.2-0.3l-0.2,0.3c0,0.1,0.1,0.2,0.2,0.2C36.5,12.1,36.6,12,36.6,11.9z M32.8,16.4l0.2-1l-0.2-0.9l0.8,0.1L33.2,13
			l1.1,0.4l1.1-0.4L35,14.6l0.8-0.2l-0.3,1l0.3,0.9L35,16.1l0.3,1.7l-1.1-0.4l-1.1,0.4l0.4-1.7L32.8,16.4z M33.5,15.2
			c0,0.4,0,0.6,0.4,0.6h0.9c0.2,0,0.3-0.3,0.3-0.6c0-0.6-0.5,0-0.8-0.6C34.1,15.2,33.5,14.7,33.5,15.2z M36.4,19.6
			c0,0.1,0.1,0.2,0.2,0.2c0.1,0,0.2-0.1,0.2-0.2l-0.2-0.3C36.6,19.3,36.4,19.6,36.4,19.6z M36.4,11.6L36.4,11.6L36.4,11.6L36.4,11.6
			z M35.9,22.7c0,0.1,0.1,0.2,0.2,0.2c0.1,0,0.2-0.1,0.2-0.2l-0.2-0.3C36.1,22.3,35.9,22.6,35.9,22.7z M36.2,20.9
			c0,0.9-0.4,1.6-0.9,1.8l-4.2,2.5c-0.1,0.1-0.2,0.1-0.3,0.1c-0.2,0-0.3-0.1-0.4-0.2l-4.2-2.5c-0.5-0.2-0.9-1-0.9-1.8V12h10.9V20.9z
			 M27.2,13.2l-0.1,0.1l0,0h0.2v0.2l0.2-0.1l0.2,0.1v-0.2h0.2l-0.1-0.1l0.1-0.1h-0.2l-0.1-0.2L27.3,13h-0.2L27.2,13.2z M26.9,15.1
			c-0.1-0.1-0.1-0.1-0.2,0c0.2,0.1,0.2,0.3,0.4,0.3c-0.1,0.1-0.4,0.4-0.2,0.4c0.1,0,0.1-0.3,0.8-0.3c0,0-0.2,0.1-0.2,0.2
			c0,0.1,0,0.1,0.1,0.1s0.1-0.2,0.2-0.2c0,0,0.1,0,0.1,0.1c0,0-0.1,0.1,0,0.1c0.4,0,0-0.8-0.3-0.8c-0.2,0-0.2,0.3-0.2,0.3
			s0-0.3-0.3-0.3C26.9,15,26.9,15,26.9,15.1z M27.3,17.7v0.2l0.2-0.1l0.2,0.1v-0.2h0.2l-0.1-0.1l0.1-0.1h-0.2l-0.1-0.2l-0.1,0.2
			h-0.2l0,0l0,0l0,0l0.1,0.1L27.3,17.7L27.3,17.7z M25.6,14.7h1.1v-2.2h-1.1V14.7z M26,15.5v0.2l0.2-0.1l0.2,0.1v-0.2h0.2l-0.1-0.1
			l0.1-0.1h-0.2L26.1,15L26,15.2h-0.2l0,0l0,0l0,0l0.1,0.1l-0.1,0.1L26,15.5z M25.6,18.3h1.1v-2.1h-1.1V18.3z M28.9,18.6h-3.3V21
			c0.1,0.6,0.3,1.1,0.7,1.5l2.6,1.5C28.9,24,28.9,18.6,28.9,18.6z M28.9,16.1H28v2.1h0.9V16.1z M28.4,15.4l-0.1,0.1l0,0h0.2v0.2
			l0.2-0.1l0.2,0.1v-0.2h0.2L29,15.4l0.1-0.1h-0.2L28.6,15l-0.1,0.2h-0.2L28.4,15.4z M28.9,12.5H28v2.2h0.9V12.5z M32.3,18.6h-3v5.7
			l1.2,0.7c0.1,0.1,0.2,0.1,0.3,0.1s0.2,0,0.3-0.1l0,0l1.2-0.7V18.6z M32.3,12.4h-3v5.8h3V12.4z M35.9,18.6h-3.3V24l2.6-1.5
			c0.4-0.3,0.7-0.8,0.7-1.5V18.6z M35.9,12.4h-3.3v5.8h3.3V12.4z M25.8,20.1c0,0,0,0.1,0.1,0.1c0,0-0.1,0.1-0.1,0.3
			c0,0.7,0.4,1,0.8,1c0.2,0,0.2-0.2,0.2-0.2c0,0.1,0.1-0.1,0.1,0.1s-0.2,0.1-0.2,0.3c0,0.2,0.3,0,0.3,0.3s0,0.3,0,0.5
			c0,0.1,0.4-0.1,0.3-0.2c0.1,0,0.1,0.3,0.2,0.3s0.1-0.3,0.2-0.3c0,0,0.3,0.2,0.3,0.1c0-0.3-0.1-0.2-0.1-0.4c0-0.2,0.5-0.2,0.4-0.3
			c-0.1-0.1-0.1,0-0.2-0.2c0,0-0.3-0.5,0.1-0.2c0.5,0.3,0.5-0.7,0.5-0.7l0,0c0,0-0.2,0.1-0.3,0.1c0-0.1,0.2-0.3,0.3-0.4
			c0-0.1-0.2,0-0.4,0.1c0.6-0.9,0.2-0.5-0.1-0.5c0.5-0.6,0.4-0.6,0-0.4c0.3-0.2,0.4-0.5,0.3-0.6c-0.3,0.4-0.6,0.3-0.6,0.7
			c0,0.2-0.1,0.6-0.2,0.8c-0.2,0.2,0-0.7-0.5-0.7c-0.1,0-0.5,0-0.5,0.2c0.1,0,0.2,0.2,0.2,0.3c0,0.1,0.1,0.3-0.1,0.3
			c-0.1,0-0.3-0.3-0.3-0.5v-0.3c0-0.4-0.6-0.9-0.8-0.9c0,0.2,0.3,0.3,0.3,0.6c-0.1,0-0.3-0.2-0.3-0.1c0,0.2,0.2,0.2,0.2,0.3
			s-0.2,0-0.2,0.1s0.1,0.1,0.2,0.2C25.9,20,25.8,20,25.8,20.1z M37.4,11.1v10.1c0,1-0.4,1.9-1,2.2l-5.2,3.3
			c-0.1,0.1-0.2,0.2-0.4,0.2c-0.2,0-0.3-0.1-0.5-0.2l-5.1-3.2c-0.6-0.3-1.1-1.2-1.1-2.2V11.1H37.4z M37,21.3L37,21.3v-9.9H24.5v9.9
			c0.1,0.8,0.3,1.4,0.9,1.8l5,3.2c0.1,0.1,0.2,0.1,0.4,0.1c0.1,0,0.3,0,0.4-0.1l0,0l5-3.2C36.7,22.7,36.9,22.1,37,21.3z"/>
	</g>
	<path class="st0" d="M14.3,22.8C14,23,13.5,23,13.2,23c-1.5,0.1-2.7,0.9-4,1.4c-0.6,0.2-1.3,0.2-1.9,0.4c0.5,0.1,1,0,1.5-0.1
		c1.9-0.3,3.3-1.7,5.3-1.5v0.1c-0.2,0.5-0.5,0.9-0.9,1.2c-0.1-0.2-0.1-0.4-0.3-0.5c-0.1-0.1-0.3,0-0.4,0.1c-0.1,0.1-0.1,0.2,0,0.3
		c0.1,0.2,0.2,0.2,0.4,0.3c0,0.2-0.2,0.2-0.4,0.4c-0.5,0.9-1.6,0.5-2.2,1.2c-0.1,0.1-0.4,0.2-0.3,0.4c0.7,0.1,1.4-0.1,1.9-0.5
		c0,0,1.9-2.1,2.5-2.6L14.3,22.8z M14.4,19.7c-0.6-0.2-1.5-0.6-2-1c-0.9-0.6-2.1-0.5-2.7-1.6c-0.2-0.4,0.1-0.9,0.3-1.2
		c0.6-0.6,0.6-1.7,0.2-2.4c-0.1,0-0.1,0.1-0.1,0.1c-0.1,1.1-0.9,1.9-0.6,3.1c0.1,0.4,0.3,0.6,0.4,0.9c-0.1,0-0.3,0-0.4-0.1
		c-0.4-0.1-0.8-0.2-1.3-0.2c-0.9,0.4-2.1-0.1-2.8,0.7c-0.1,0-0.3,0-0.2,0.2c0.4,0,0.8,0.1,1.2,0.1c0.7,0.1,1.1-0.4,1.5-0.7H8
		c0.2-0.2,0.5-0.1,0.8-0.1c1.2,0.1,2.1,0.7,3.1,1.3V19c-0.4,0.2-0.8,0.3-1.2,0.5c-0.4,0.3-0.9,0.8-1.1,1.3c-0.3,0.5,0.1,0.9,0.3,1.3
		c0,0.2,0,0.4,0.2,0.5c0.6-0.6,0-1.5,0.1-2.2c0.1-0.6,0.7-0.8,1.2-1c1.1-0.5,1.9,0.5,2.9,1v-0.7H14.4z M13.6,25.7
		c0.1,0.2-0.1,0.3-0.2,0.5c-0.2,0.1-0.4-0.1-0.5-0.3c0-0.2,0.1-0.4,0.2-0.5C13.3,25.4,13.5,25.5,13.6,25.7L13.6,25.7z M22.2,24.9
		c0.2,0,0.3-0.1,0.3-0.3s-0.1-0.3-0.3-0.3s-0.3,0.1-0.3,0.3S22.1,24.9,22.2,24.9L22.2,24.9z M21.7,25.7c0.2,0,0.4-0.1,0.4-0.3
		s-0.2-0.3-0.4-0.3s-0.4,0.1-0.4,0.3S21.5,25.7,21.7,25.7L21.7,25.7z M22.9,25.8c0.2,0,0.4-0.1,0.4-0.3s-0.2-0.3-0.4-0.3
		s-0.4,0.1-0.4,0.3S22.6,25.8,22.9,25.8L22.9,25.8z M53.8,10.8c0.5,0.7,0.6,1.6,0.3,2.4c-0.2,0-0.2-0.3-0.2-0.4
		c-0.4-0.7-0.7-1.6-0.3-2.4C53.7,10.4,53.6,10.7,53.8,10.8L53.8,10.8z M8.4,11.7c-0.1,0.5-0.1,1.1,0,1.5c-0.1,0.1-0.1-0.1-0.2-0.1
		c-0.7-0.5-0.4-1.6-0.6-2.3c0-0.1,0.1-0.1,0.2,0C8.2,11,8.3,11.3,8.4,11.7L8.4,11.7L8.4,11.7z M55.4,11.8c0.1,0.2-0.1,0.4-0.2,0.5
		c-0.2,0-0.4-0.1-0.5-0.2c-0.1-0.2,0.1-0.4,0.2-0.5C55.1,11.6,55.3,11.6,55.4,11.8L55.4,11.8z M7.2,12.6c0,0.2-0.1,0.3-0.2,0.4
		c-0.1,0-0.3,0-0.4-0.1s-0.1-0.3-0.1-0.4c0.1-0.1,0.2-0.1,0.4-0.2C7.1,12.4,7.2,12.5,7.2,12.6C7.3,12.6,7.3,12.6,7.2,12.6z
		 M56.1,12.9c0,0.1,0,0.2,0,0.3c-0.1,0.2-0.3,0.2-0.5,0.2c-0.1-0.1-0.2-0.2-0.2-0.3s0.2-0.3,0.3-0.3C55.9,12.7,56,12.8,56.1,12.9
		L56.1,12.9L56.1,12.9z M55.1,12.9c0.2,0.1,0,0.3,0,0.4c-0.1,0.1-0.2,0.2-0.4,0.2c-0.1-0.1-0.2-0.1-0.2-0.2c0-0.2,0.1-0.4,0.3-0.4
		C54.9,12.8,54.9,12.9,55.1,12.9L55.1,12.9z M53.7,13.2c0,0.2,0,0.5-0.2,0.5c-0.2,0.1-0.4-0.1-0.4-0.3s0.1-0.4,0.3-0.5
		C53.4,13,53.6,13.1,53.7,13.2L53.7,13.2z M9.3,13.3c0.1,0.2-0.1,0.3-0.2,0.4c-0.1,0-0.3-0.1-0.4-0.2c-0.1-0.1,0-0.2,0.1-0.4
		C9,13,9.2,13.1,9.3,13.3L9.3,13.3L9.3,13.3z M8.2,13.4c0,0.1-0.1,0.3-0.2,0.4c-0.2,0.1-0.3-0.1-0.4-0.2c-0.1-0.2,0-0.4,0.2-0.4
		C8,13.1,8.1,13.2,8.2,13.4L8.2,13.4z M49.1,13.5c0.2,0.4,0.3,0.9,0.4,1.4c-0.1,0.4,0.1,0.8-0.2,1.1c-0.3-0.1-0.3-0.4-0.5-0.6
		c-0.3-0.7,0-1.4,0.1-2.1C49,13.2,49,13.4,49.1,13.5L49.1,13.5L49.1,13.5z M7.3,13.7C7.4,13.9,7.2,14,7,14.2
		c-0.2,0.1-0.4-0.1-0.5-0.3c0-0.2,0.1-0.4,0.2-0.5C7,13.4,7.2,13.5,7.3,13.7L7.3,13.7z M52.1,14.2c0.2,0.6,0.3,1.2,0.1,1.8l-0.1,0.1
		c-0.3-0.5-0.6-1-0.8-1.6c0-0.4,0.1-0.8,0.2-1.1c0.1-0.1,0.2,0,0.3,0.1C51.8,13.9,51.9,14.1,52.1,14.2L52.1,14.2L52.1,14.2z
		 M54.5,13.9c0,0.2-0.1,0.4-0.3,0.5c-0.2,0-0.4,0-0.4-0.2c-0.1-0.2,0.1-0.4,0.2-0.5C54.2,13.6,54.4,13.8,54.5,13.9L54.5,13.9z
		 M8.2,14.5c0,0.1-0.1,0.3-0.3,0.4c-0.2,0.1-0.3-0.1-0.4-0.1c-0.1-0.1-0.1-0.3,0-0.4c0.1-0.1,0.2-0.1,0.3-0.1
		C8,14.2,8.2,14.3,8.2,14.5L8.2,14.5z M9,14.4c0.1,0.2-0.1,0.3-0.2,0.4c-0.2,0.1-0.3-0.1-0.4-0.2c0-0.2,0.1-0.3,0.2-0.4
		C8.8,14.1,8.9,14.2,9,14.4L9,14.4z M55,14.3c0,0.2-0.4,0.5-0.4,0.8c-0.2,0.5-0.7,0.9-1.2,1.1c-0.1,0.1-0.3,0.2-0.4,0.2
		c0-0.4,0.3-0.7,0.5-1.1C53.9,14.8,54.4,14.5,55,14.3L55,14.3L55,14.3z M7.8,15.1c0.3,0.3,0.4,0.6,0.8,0.9c0,0.1,0,0.2-0.1,0.2
		c-0.9-0.1-1.6-1-2-1.7c0.1-0.2,0.3,0,0.4-0.1C7.2,14.7,7.6,14.8,7.8,15.1L7.8,15.1L7.8,15.1z M55.3,15.4c0,0.8-0.4,1.7-1.2,2.1
		c-0.2,0.1-0.4,0.3-0.6,0.1C53.9,16.8,54.5,16.1,55.3,15.4C55.2,15.4,55.3,15.4,55.3,15.4z M51.6,16c0.1,0.3-0.1,0.5-0.3,0.5
		s-0.3-0.1-0.4-0.3c0-0.2,0.1-0.4,0.3-0.4c0.1-0.1,0.2-0.1,0.2-0.1C51.5,15.8,51.5,15.9,51.6,16L51.6,16L51.6,16z M6.8,16.1
		c0.4,0.2,0.7,0.6,1,0.9c-0.2,0.2-0.6,0-0.8,0c-0.6-0.2-1.1-0.8-1.7-1c0-0.2,0.3-0.1,0.4-0.2C6,15.9,6.4,16,6.8,16.1L6.8,16.1
		L6.8,16.1z M12.2,16.5c0,0.2-0.1,0.4-0.3,0.4c-0.1-0.1-0.3-0.1-0.4-0.2c-0.1-0.2,0.1-0.4,0.3-0.4S12.2,16.3,12.2,16.5L12.2,16.5
		L12.2,16.5z M11,16.5c0.1,0.1,0.1,0.3,0.1,0.4C11,17,10.8,17.1,10.7,17c-0.1-0.1-0.2-0.2-0.1-0.4C10.6,16.4,10.9,16.3,11,16.5
		L11,16.5L11,16.5z M51.8,17c0.1,0.2-0.1,0.4-0.2,0.4c-0.2-0.1-0.4-0.1-0.4-0.3c0-0.1,0.2-0.2,0.3-0.3C51.6,16.8,51.7,16.9,51.8,17
		L51.8,17L51.8,17z M52.8,17c0.1,0.1,0.2,0.2,0,0.3c-0.1,0.1-0.1,0.1-0.2,0.1c-0.2,0-0.4,0-0.5-0.2c0-0.2,0.1-0.3,0.3-0.4
		C52.6,16.8,52.7,16.9,52.8,17L52.8,17L52.8,17z M6.2,17.2c-0.1,0.2-0.3,0.3-0.5,0.2c-0.1-0.1-0.1-0.1-0.2-0.2
		c0-0.1,0.1-0.3,0.2-0.3C6,16.9,6.2,17,6.2,17.2L6.2,17.2z M12.6,17.5c0,0.1-0.2,0.3-0.3,0.4c-0.2,0-0.3-0.1-0.4-0.3
		c0-0.1,0.1-0.3,0.2-0.4C12.3,17.1,12.5,17.3,12.6,17.5L12.6,17.5z M11.5,17.4c0.1,0.1,0.1,0.2,0.1,0.3c-0.1,0.1-0.3,0.3-0.5,0.1
		c-0.1-0.1-0.2-0.2-0.2-0.4c0.1-0.1,0.2-0.2,0.3-0.2C11.3,17.2,11.4,17.3,11.5,17.4L11.5,17.4L11.5,17.4z M55.7,17.6
		c0,0.1-0.2,0.3-0.2,0.4c-0.2,0.1-0.3,0-0.4-0.1c-0.1,0-0.1-0.2-0.1-0.3c0.1-0.1,0.2-0.2,0.4-0.2C55.5,17.4,55.6,17.5,55.7,17.6
		L55.7,17.6L55.7,17.6z M56.9,17.8c-0.1,0.2-0.2,0.3-0.4,0.3c-0.1,0-0.3-0.1-0.3-0.2s0.1-0.3,0.2-0.3C56.6,17.5,56.9,17.6,56.9,17.8
		L56.9,17.8L56.9,17.8z M8.4,18.1c0,0.2,0,0.4-0.2,0.5c-0.1,0.1-0.3,0-0.4-0.1s-0.2-0.2-0.1-0.4c0-0.2,0.2-0.1,0.3-0.2
		C8.2,17.9,8.3,17.9,8.4,18.1L8.4,18.1L8.4,18.1z M9.3,18.2c0.1,0.1-0.1,0.2-0.1,0.3c-0.1,0.1-0.2,0.1-0.3,0S8.6,18.2,8.8,18
		C8.8,17.9,9.2,18,9.3,18.2L9.3,18.2z M54.6,18.1c0,0.2-0.2,0.3-0.3,0.4c-0.2,0-0.3-0.1-0.4-0.2c0-0.1,0.1-0.3,0.2-0.4
		C54.3,18,54.5,18,54.6,18.1L54.6,18.1z M56.1,18.4c0,0.2,0,0.4-0.2,0.5c-0.2,0-0.3,0-0.5-0.1s-0.1-0.3-0.1-0.4
		c0.1-0.1,0.3-0.3,0.5-0.2C56,18.3,56,18.4,56.1,18.4L56.1,18.4z M7.7,18.8C7.8,19,7.6,19,7.5,19.1s-0.3,0-0.4,0
		c-0.1-0.1,0-0.3,0-0.4C7.3,18.4,7.6,18.6,7.7,18.8L7.7,18.8z M55,19.2c0.1,0,0,0.1,0,0.2c-0.5,0.2-1.1,0.3-1.5-0.1
		c-0.2-0.2-0.5-0.3-0.8-0.4c0.1-0.2,0.4-0.2,0.7-0.3C53.9,18.7,54.3,19.2,55,19.2L55,19.2L55,19.2z M8.6,19c0,0.1-0.1,0.2-0.1,0.3
		c-0.1,0.1-0.2,0.1-0.3,0c-0.2,0-0.3-0.2-0.2-0.4C8.2,18.7,8.5,18.8,8.6,19L8.6,19L8.6,19z M10.3,19.1c0.1,0.2,0,0.3-0.2,0.4
		c-0.1,0.1-0.2,0-0.4-0.1c-0.1-0.1-0.3-0.3-0.1-0.4C9.8,18.8,10.1,18.9,10.3,19.1L10.3,19.1L10.3,19.1z M11.9,19.8
		c0.1,0.2-0.1,0.3-0.2,0.4c-0.2,0.1-0.3-0.1-0.3-0.2c-0.1-0.2,0.1-0.3,0.2-0.4C11.7,19.6,11.8,19.7,11.9,19.8L11.9,19.8z M23.6,20
		c0.2,0.8,0.1,1.5-0.2,2.1c0,0.1,0,0.4-0.2,0.4c-0.5-0.7-0.1-1.7,0.1-2.4C23.3,19.9,23.6,19.8,23.6,20L23.6,20z M39.8,20.4
		c0.3,0.6,0.3,1.2,0,1.8l-0.2,0.1c-0.2-0.4-0.4-0.9-0.4-1.4c0.1-0.3,0.2-0.6,0.2-1C39.8,19.9,39.8,20.2,39.8,20.4L39.8,20.4
		L39.8,20.4z M13.4,20.6c-0.1,0.2-0.4,0.3-0.6,0.4c-0.4,0.3-1.1,0.4-1.7,0.3c0.5-0.7,1.2-1.1,2.2-0.9C13.3,20.5,13.4,20.5,13.4,20.6
		L13.4,20.6L13.4,20.6z M5.6,21.3c0.7,0.5,0.9,1.2,1.3,1.9c0.1,0.1,0.2,0.1,0.2,0.2c-0.2,0.1-0.3-0.1-0.5-0.1
		c-0.7-0.3-1.2-1.1-1.2-2C5.4,21.3,5.5,21.3,5.6,21.3L5.6,21.3z M39.1,21.9c0,0.2,0,0.4-0.2,0.4c-0.2,0.1-0.4-0.1-0.4-0.2
		c-0.1-0.1,0.1-0.2,0.1-0.3C38.8,21.6,39,21.7,39.1,21.9L39.1,21.9L39.1,21.9z M56.4,22.1c-0.6,0.9-1.2,1.8-2.3,2.1
		c-0.1,0-0.2,0-0.2-0.1c0.6-0.7,1-1.8,2-2C56.1,22.1,56.3,22.1,56.4,22.1L56.4,22.1z M4.7,23.1c-0.1,0.1,0,0.2-0.2,0.3
		c-0.2,0.1-0.3,0-0.4-0.2C4,23,4.2,22.8,4.3,22.8C4.5,22.8,4.6,22.9,4.7,23.1L4.7,23.1L4.7,23.1z M10.1,23.3
		c0.1,0.2-0.1,0.2-0.2,0.2c-0.8,0.3-1.6,0-2.2-0.5c0-0.1,0-0.1,0.1-0.2C8.6,23,9.5,22.9,10.1,23.3L10.1,23.3L10.1,23.3z M5.7,23.1
		c0,0.1,0.1,0.2,0,0.3c-0.1,0.2-0.3,0.2-0.5,0.2C5.1,23.5,5,23.5,5,23.4c0-0.2,0.2-0.3,0.3-0.4C5.5,23,5.6,23,5.7,23.1L5.7,23.1z
		 M23.5,23.2c0,0.2-0.1,0.3-0.2,0.4c-0.2,0-0.3,0-0.4-0.1s0-0.3,0.1-0.4C23.2,23,23.4,23,23.5,23.2L23.5,23.2L23.5,23.2z M57.1,23.3
		c0.1,0.2-0.1,0.3-0.2,0.4c-0.1,0.1-0.2,0-0.4-0.1c0-0.1-0.1-0.2-0.1-0.3c0.1-0.2,0.2-0.2,0.4-0.2C57,23.2,57,23.2,57.1,23.3
		L57.1,23.3L57.1,23.3z M58.4,23.2c0.1,0.2,0,0.3-0.1,0.4s-0.2,0.2-0.3,0.1s-0.3-0.2-0.3-0.3c0-0.1,0.2-0.3,0.3-0.3
		C58.2,23,58.2,23.2,58.4,23.2L58.4,23.2z M3.9,23.7c0,0.1-0.1,0.2-0.1,0.3c-0.1,0-0.2,0.1-0.3,0.1c-0.1-0.1-0.2-0.2-0.3-0.3
		c0-0.2,0.2-0.3,0.3-0.4C3.7,23.5,3.8,23.6,3.9,23.7L3.9,23.7z M43.8,23.7c0,0.1,0,0.2,0,0.2c-0.1,0.1-0.3,0.3-0.5,0.2
		c-0.1-0.1-0.2-0.2-0.2-0.4C43.3,23.6,43.7,23.5,43.8,23.7L43.8,23.7L43.8,23.7z M6.9,24c0,0.1-0.1,0.3-0.3,0.3s-0.2-0.1-0.3-0.2
		c0-0.2,0-0.3,0.2-0.4C6.7,23.6,6.9,23.8,6.9,24L6.9,24L6.9,24z M5.1,24.1c0.1,0.2-0.1,0.3-0.2,0.4c-0.2,0.1-0.4-0.1-0.5-0.3
		c0-0.2,0.2-0.4,0.3-0.4C4.9,23.8,5,24,5.1,24.1L5.1,24.1z M45,24c0,0.2,0,0.4-0.2,0.5s-0.4-0.1-0.5-0.3c0.1-0.1,0.1-0.4,0.3-0.4
		C44.8,23.8,45,23.9,45,24C45.1,24,45.1,24,45,24z M6,24.1c0.1,0.1-0.1,0.2-0.1,0.3c-0.1,0-0.2,0.1-0.3,0.1
		c-0.1-0.1-0.2-0.1-0.2-0.3c0-0.2,0.1-0.3,0.2-0.4C5.8,23.8,6,24,6,24.1L6,24.1L6,24.1z M56.1,24.3c-0.1,0.1-0.2,0.2-0.3,0.3
		c-0.2,0-0.2-0.1-0.4-0.1c-0.1-0.1-0.1-0.2,0-0.3C55.6,23.8,56.1,23.9,56.1,24.3L56.1,24.3L56.1,24.3z M57.5,24.3
		c-0.1,0.2-0.3,0.3-0.5,0.3c-0.2-0.1-0.4-0.2-0.2-0.4c0.1-0.1,0.1-0.1,0.2-0.2C57.3,24,57.5,24.1,57.5,24.3L57.5,24.3z M48.5,24.5
		c0.1,0.2-0.1,0.3-0.3,0.4c-0.1,0-0.2-0.1-0.4-0.1c0-0.2,0.1-0.4,0.3-0.5C48.3,24.3,48.4,24.3,48.5,24.5L48.5,24.5z M43.3,24.7
		c0.1,0,0.1,0.2,0,0.2C43.2,25,43,25.2,42.9,25c-0.1-0.1-0.2-0.2-0.2-0.4C42.9,24.5,43.2,24.5,43.3,24.7L43.3,24.7L43.3,24.7z
		 M44.4,24.8c0,0.1,0,0.2-0.2,0.3c-0.1,0.1-0.3,0-0.4-0.1c0-0.1-0.1-0.2,0-0.3c0.1-0.1,0.2-0.1,0.2-0.1
		C44.2,24.7,44.3,24.7,44.4,24.8L44.4,24.8z M12.2,24.8c0.1,0.1,0,0.2,0,0.4c-0.1,0.1-0.3,0.2-0.5,0.1s-0.2-0.3-0.1-0.5
		c0.1,0,0.1-0.2,0.3-0.2C12,24.7,12.1,24.8,12.2,24.8C12.2,24.9,12.2,24.9,12.2,24.8z M50.6,24.9c0,0.2-0.2,0.3-0.3,0.3
		c-0.2,0.1-0.3-0.1-0.4-0.2c0-0.1,0.1-0.2,0.2-0.3C50.3,24.6,50.4,24.8,50.6,24.9L50.6,24.9z M49.5,24.9c0.1,0.2-0.1,0.3-0.2,0.4
		c-0.1,0.1-0.3,0-0.4-0.1c-0.1-0.1-0.1-0.2-0.1-0.3c0.1-0.1,0.2-0.2,0.3-0.2C49.3,24.7,49.5,24.8,49.5,24.9L49.5,24.9L49.5,24.9z
		 M58.1,25.2c0,0.3-0.3,0.1-0.4,0.2c-0.8,0.5-1.8,0.1-2.6-0.2c0.1-0.2,0.3-0.1,0.5-0.2C56.4,24.4,57.2,25.1,58.1,25.2L58.1,25.2
		L58.1,25.2z M6.2,24.9L6.1,25c-0.7,0.4-1.6,0.7-2.5,0.4l-0.1-0.1C4.3,24.9,5.2,24.7,6.2,24.9L6.2,24.9L6.2,24.9L6.2,24.9z
		 M52.5,25.1c0,0.1-0.1,0.3-0.2,0.4c-0.2,0.1-0.4,0-0.5-0.2c-0.1-0.1,0.1-0.3,0.2-0.4C52.2,24.9,52.4,24.9,52.5,25.1L52.5,25.1z
		 M9.6,25.1c-0.1,0.1,0,0.3-0.2,0.4S9,25.4,8.9,25.3c0-0.2,0.1-0.3,0.2-0.4C9.3,24.8,9.5,25,9.6,25.1L9.6,25.1z M8.3,25.2
		c0.1,0.1-0.1,0.2-0.1,0.3c-0.1,0.1-0.3,0.1-0.4,0.1c-0.1-0.1-0.3-0.2-0.2-0.5C7.7,25,7.8,25,7.9,24.9C8.1,25,8.2,25,8.3,25.2
		L8.3,25.2L8.3,25.2z M53.8,25.7c0,0.2-0.2,0.3-0.3,0.3c-0.2,0-0.3-0.1-0.4-0.2c-0.1-0.1,0-0.3,0.1-0.4c0-0.1,0.2-0.1,0.2-0.1
		C53.7,25.4,53.8,25.5,53.8,25.7L53.8,25.7z M6.9,25.5c0.1,0.1-0.1,0.2-0.1,0.3c-0.1,0.3-0.3,0.5-0.4,0.8C6,27,5.5,27,5,27.2L4.9,27
		C5.4,26.3,6,25.8,6.9,25.5L6.9,25.5L6.9,25.5L6.9,25.5z M52.9,25.9c0,0.2-0.2,0.3-0.3,0.4c-0.2,0-0.3-0.1-0.4-0.2
		c-0.1-0.2,0.1-0.3,0.2-0.4C52.7,25.6,52.8,25.7,52.9,25.9L52.9,25.9z M9,25.9c0,0,0,0.1,0.1,0.1c0,0.2-0.2,0.3-0.3,0.4
		c-0.2,0-0.3-0.1-0.4-0.2c-0.1-0.2,0-0.4,0.2-0.4C8.8,25.7,9,25.7,9,25.9L9,25.9L9,25.9z M56.4,26.4c0.2,0,0.2-0.2,0.4-0.3
		c0.2,0,0.4,0.1,0.5,0.2c0.1,0.2-0.1,0.3-0.2,0.4c-0.1,0.1-0.4-0.1-0.4,0.1c0.1,0.1,0.2,0.2,0.3,0.4c0,0.1-0.2,0.1-0.2,0
		c-0.5-0.2-1.1-0.6-1.4-1.2c-0.1-0.2-0.4-0.3-0.2-0.5C55.6,25.7,56,26.1,56.4,26.4L56.4,26.4L56.4,26.4z M58.2,25.9
		c0.1,0.1,0.1,0.3,0,0.4c-0.1,0.2-0.4,0.1-0.5,0.1c-0.1-0.1-0.2-0.2-0.2-0.3c0.1-0.1,0.2-0.2,0.3-0.2C57.9,25.7,58,25.8,58.2,25.9
		L58.2,25.9z M51.3,26.9c0.2,0.2,0.3,0.5,0.4,0.8c0,0.1-0.1,0-0.2,0c-0.6-0.4-1.5-0.8-1.7-1.5c-0.1-0.1-0.2-0.2-0.2-0.3
		c0.5-0.1,1,0.3,1.3,0.5C51.1,26.6,51.3,26.7,51.3,26.9L51.3,26.9L51.3,26.9z M8,26.2c0.1,0.2-0.1,0.3-0.2,0.4c-0.2,0-0.3,0-0.4-0.1
		c-0.1-0.2,0.1-0.4,0.3-0.5C7.8,25.9,7.9,26.1,8,26.2L8,26.2L8,26.2z M53.7,26.6c0,0.1-0.1,0.2-0.2,0.3c-0.2,0-0.3,0.1-0.4-0.1
		c0-0.1-0.1-0.2,0-0.3C53.2,26.2,53.5,26.4,53.7,26.6L53.7,26.6z M58.4,26.9c0.1,0.2-0.1,0.4-0.3,0.5s-0.3-0.1-0.5-0.2
		c-0.1-0.1,0-0.2,0-0.4c0.1-0.1,0.3-0.2,0.5-0.1C58.2,26.8,58.3,26.8,58.4,26.9L58.4,26.9L58.4,26.9z M45.3,29.5
		c0,0.2-0.4,0.2-0.6,0.3c-0.6,0.3-1.3,0.3-2,0.3V30C43.4,29.5,44.4,29.2,45.3,29.5L45.3,29.5L45.3,29.5z M17.6,30.3
		c0,0.2-0.1,0.3-0.3,0.3c-0.1,0-0.3-0.1-0.3-0.2c-0.1-0.2,0.1-0.3,0.2-0.4C17.4,30.1,17.6,30.2,17.6,30.3L17.6,30.3z M45,30.5
		c0,0.2-0.1,0.4-0.3,0.4s-0.3-0.1-0.4-0.1c-0.1-0.1,0-0.2-0.1-0.3C44.3,30.2,44.8,30.2,45,30.5L45,30.5L45,30.5z M48.7,30.6
		c-0.5,0.3-1,0.7-1.6,0.7h-1L46,31.2c0.6-0.8,1.8-0.8,2.8-0.7L48.7,30.6L48.7,30.6L48.7,30.6z M12.4,31.1c0,0.2-0.1,0.3-0.2,0.4
		c-0.2,0-0.3,0-0.4-0.2c-0.1-0.2,0-0.3,0.1-0.4C12.1,30.7,12.4,30.9,12.4,31.1L12.4,31.1L12.4,31.1z M13.4,31.3
		c0.1,0.1,0,0.1-0.1,0.2s-0.3,0.1-0.4,0c-0.1-0.1-0.2-0.2-0.1-0.3S13,31.1,13,31C13.2,31.1,13.3,31.1,13.4,31.3L13.4,31.3L13.4,31.3
		z M6.1,33.2c-0.2,0.2-0.5-0.1-0.7-0.2c-0.7-0.4-0.6-1.1-1.3-1.6c0.1-0.2,0.2,0,0.4,0c0.1,0.1,0.3,0.1,0.4,0.2
		C5.5,32,5.7,32.6,6.1,33.2L6.1,33.2L6.1,33.2z M61.4,25.8C61.1,25.2,60.5,25,60,25s-0.9,0.4-1.1,0.8c-0.1,0.4,0,0.8,0.4,1
		c0.1,0.1,0.3,0,0.4-0.1c0.1-0.2-0.2-0.2-0.2-0.4c-0.1-0.3,0-0.5,0.2-0.7s0.5-0.1,0.7-0.1c0.2,0.1,0.5,0.3,0.6,0.5
		c0.1,0.3,0.1,0.7,0,1c-0.2,0.5-0.7,0.9-1.2,1C58.2,28.2,41,28.1,41,28.1c-2,0.2-4.3-0.4-6.1,0.7c-0.8,0.4-1.2,1.3-1.4,2
		c-0.5,0.5-1.1,1-1.5,1.5l-0.1-0.1c0.1-0.5,0.3-0.9,0.4-1.3c0.3-0.4,0.3-0.9,0.5-1.3c0.7-1.2,1.4-2.4,2.5-3.2c0.5-0.6,1.3-0.5,2-0.5
		c0.8,0.4,1.7,0.5,2.6,0.4l0.1-0.1c-0.3-0.2-0.7-0.3-1-0.6c-0.8-0.4-1.5,0.1-2.3,0.1l-0.1-0.1c0.7-0.5,1.5-0.9,2.3-1.3
		c0.7-0.4,1.4-0.5,2.1-0.8c0.3,0,0.5-0.2,0.8-0.1l1-0.3c0,0,0.1,0.1,0.2,0.1c0.8-0.3,1.9,0,2.9,0l0.1,0.1l0.9,0.2
		c0.3,0,0.5,0.4,0.9,0.5c0.2-0.3-0.2-0.4-0.3-0.5c0.4-0.1,0.9,0,1.3,0.2l-0.2,0.2c-0.1,0.2,0.1,0.4,0.2,0.4c0.1,0,0.2-0.1,0.3-0.1
		c0.2-0.2,0-0.3,0.1-0.5c1.4,0.2,2.8,0.6,4,1.1c0.4,0.1,0.7,0.4,1.1,0.4c-0.4-0.4-1-0.5-1.4-0.8c-0.3-0.2-0.8-0.2-1-0.5
		c0.1-0.1,0.2-0.1,0.2-0.1c0.6-0.1,1.2-0.5,1.7-1.1c0-0.1,0.2-0.1,0.2-0.2c-0.2-0.2-0.5,0.1-0.7,0c-0.8,0.1-1.1,1.1-1.9,1.3
		l-2.9-0.7c-0.5-0.1-1-0.1-1.4-0.3L46,22.7h-1.9L44,22.6c0.7-0.2,1.3-0.6,2-0.8l5.1-2.3c0.5-0.5,1-1,1.4-1.6c0-0.1-0.1-0.3-0.2-0.4
		s-0.3,0-0.4,0.1c-0.2,0.2,0,0.4,0,0.6c-0.2,0.3-0.6,0.6-0.9,0.8c-0.1,0-5.2,2.4-5.2,2.4c-0.8,0.3-1.5,0.7-2.3,0.9l-1.1,0.2
		c-0.1,0.2-0.3,0.4-0.5,0.4c-0.3,0.1-0.5,0.2-0.9,0.2c-2.5,1-5,2-7,3.9c0.1-0.2,0.2-0.5,0.2-0.8s0-0.6-0.2-0.8
		c0-0.1-0.2-0.4-0.1-0.5L33.7,25c-0.2,0.4-0.3,1.2-0.2,1.6c0.1,0.3,0.3,0.8,0.1,1c-0.9,1.1-1.4,2.5-2,3.7c-0.2,0-0.3-0.2-0.4-0.5
		c0.6-0.8,1.2-1.7,1.4-2.8c0.1-0.1,0-0.3,0.2-0.5c0-0.3,0.2-0.6,0-0.9c0.1-0.4-0.5-0.8-0.1-1.1l-0.4,0.2c-0.8,1.1,0.4,2.7-0.5,3.7
		v0.1c-0.3,0.3-0.4,0.7-0.8,0.9c-0.5-0.2-0.6-0.7-0.9-1.1c-0.4-0.4-0.4-1.2-0.2-1.8c0.2-0.5-0.1-1-0.2-1.5l-0.2-0.1
		c-0.5,0.6-0.6,1.5-0.3,2.2c0.2,0.3,0.2,0.8,0.5,1.1c0.2,0.5,0.5,0.9,0.8,1.4c0.1,0.2-0.1,0.2-0.2,0.3c-0.2-0.1-0.2-0.4-0.4-0.6
		c-0.6-1.3-1.4-2.4-2.4-3.5c0-0.2-0.2-0.3-0.1-0.5c0.4-0.3,0.4-1,0.2-1.5c0-0.1-0.1-0.2-0.1-0.3l-0.3-0.2c0,0.7-0.4,1.3-0.2,2l0,0
		c-2-1.5-4.1-2.8-6.3-3.8L20.5,23c0.5,0.1,2,1,2,1c0.7,0.2,1.3,0.6,1.9,1c2.6,1.4,4.3,3.8,5.4,6.4c0,0.2,0.2,0.4,0.1,0.6
		c-0.4-0.6-1-1-1.4-1.5c-0.1-0.9-0.7-1.8-1.4-2.1c-0.3-0.4-0.9-0.5-1.4-0.6h-6.9C13.2,27.7,8.1,28,2.5,27.9c-0.8-0.1-1.7-0.3-2-1.2
		c-0.2-0.3-0.2-0.8,0-1c0.2-0.4,0.6-0.5,1-0.5c0.3,0,0.5,0.3,0.6,0.5c0,0.2-0.2,0.5-0.3,0.7C2,26.9,2,27,2.2,27
		c0.2-0.1,0.4-0.4,0.5-0.6c0-0.1,0.1-0.3-0.1-0.4c-0.1-0.4-0.5-0.7-0.9-0.8c-0.5,0-1,0.1-1.3,0.4C0,26,0,26.7,0.1,27.2
		c0.3,0.8,1.2,1.4,2,1.5l18.4,0.1c1.8,0.1,3.8-0.2,5.6,0.1c0.7,0.2,1.4,0.7,1.5,1.5h-0.1c-1.5-1-3.5-1.3-5.4-1.1
		c-0.8,0-1.4,0.2-2.1,0.4c-0.4,0.1-0.7-0.1-0.9-0.3c-0.7-0.6-1.9-0.6-2.8-0.3c0,0.1,0,0.1,0,0.1c0.9-0.1,1.5,0.7,2.3,0.8
		c0.2,0,0.3-0.2,0.5,0c-0.9,0.4-1.7,0.9-2.6,1.2c-0.3-0.1-0.4-0.3-0.7-0.5c-0.4-0.4-1-0.2-1.5-0.3c-0.2,0-0.3-0.1-0.4,0
		c0.1,0.3,0.5,0.5,0.8,0.6c0.5,0.2,1,0,1.5,0.3c-0.1,0.1-0.3,0.2-0.4,0.3c-0.9,0.3-1.6,1.2-2.6,1.1c-1,0.1-2.1-0.2-2.8-0.9
		c-0.3-0.8-1.1-1.1-1.9-1.1c-0.1,0-0.1,0-0.1,0.1c0.4,0.2,0.7,0.8,1.2,1c0.3,0.3,0.8,0,1,0.4c0.4,0.2,0.8,0.5,1.2,0.5
		c0.3,0.1,0.6,0.2,1,0.3l-0.1,0.1C11,33.7,9,33.7,7,33.6c-0.6,0-1.1-0.2-1.7-0.2c0.1,0.1,0.3,0.2,0.4,0.3c-0.2,0.1-0.3,0.1-0.5,0.2
		C5.1,34,4.9,34,4.7,34.1c-0.3,0-0.6,0.1-0.8,0.2c-0.3,0.3-0.7,0.7-1.1,0.9c0,0.1,0,0.2,0.1,0.2c0.4-0.2,0.8,0,1.2-0.2
		c0.6-0.1,1-0.8,1.5-1c0.5-0.4,1.3-0.3,1.9-0.2c0.4,0.1,0,0.2,0.1,0.5c0.2,0.1,0.3,0.3,0.5,0.2l0.1-0.1c0.1-0.2,0.1-0.3,0-0.5
		c0.3-0.2,0.6,0,0.9-0.1c0.7,0,1.4-0.2,2.1-0.2c0.1,0,0.2-0.1,0.4,0c-0.1,0.2-0.2,0.2-0.2,0.4s0.2,0.2,0.4,0.3
		c0.2-0.1,0.4-0.2,0.3-0.5c0-0.1-0.2-0.2-0.3-0.2c0.4-0.2,0.9-0.2,1.2-0.4c0.3-0.1,0.5-0.1,0.8-0.3c0.2,0,0.4-0.2,0.7-0.2
		c-0.1,0.3-0.2,0.6-0.4,0.9c-0.3,1-0.5,2.3,0,3.3c0.1,0,0.1,0,0.1,0c-0.4-1-0.2-2.2,0.2-3.1c0.3-1.6,1.9-2.1,3.1-2.7l0.1,0.1
		c-0.3,0.8-0.8,1.6-0.7,2.6c0,0.2-0.1,0.3,0,0.5c0.3-0.2,0.5-0.5,0.7-0.9c0.1-0.9-0.4-1.9,0.5-2.6c1.5-0.6,3-1.4,4.8-1.4
		c0.1,0.1,0.2,0,0.2,0.1c-0.4,0.4-0.9,0.8-1.1,1.3c-0.6,0.8-0.6,2.3-0.3,3.3c0.2,0.6-0.3,0.9-0.6,1.4c-0.1,0.2-0.1,0.4-0.3,0.6
		c0,0-0.1,0.4,0,0.4c0.1-0.1,0.3-0.4,0.3-0.4c0.3-0.3,0.6-0.8,0.6-1.3c0,0.2,0.2,0.3,0.4,0.4c0.1-0.2-0.1-0.4-0.1-0.6
		c0.3-0.2,0.4,0.2,0.7,0.3c0.4,0.2,0.8,0.2,1.2,0.3c0.2,0,0.1-0.1,0.1-0.1c-0.4-0.7-1.2-0.8-2-0.8c-0.4-0.6-0.4-1.4-0.3-2.2
		c0.1-0.4,0.1-0.8,0.4-1.2c0.1-0.3,0.4-0.5,0.5-0.7c0.3-0.3,0.8-0.5,1.2-0.6h0.1v0.1c-0.5,0.4-0.6,1-0.9,1.5s-0.5,1.1-0.2,1.7
		c0.1,0.2,0.1,0.6,0.3,0.8c0.2-0.3,0.3-0.8,0.4-1.2c-0.1-0.6-0.4-1.2-0.1-1.8c0.2-0.5,0.6-0.7,1-0.8c1-0.1,2,0.4,2.9,0.8
		c0.2,0.1,0.5,0.2,0.5,0.5c0,0.5-0.3,1-0.7,1.3c-0.5,0.3-1.2,0.3-1.7,0c-0.3-0.3-0.4-0.8-0.3-1.2c0.2-0.2,0.5-0.4,0.8-0.3
		c0.2,0.1,0.4,0.3,0.6,0.2c0.1-0.1,0.1-0.2,0.1-0.3c-0.2-0.1-0.3-0.4-0.6-0.4c-0.4-0.1-0.8,0-1,0.2c-0.4,0.3-0.6,0.8-0.4,1.3
		c0.1,0.6,0.6,1,1.2,1.2c0.9,0.2,1.8-0.1,2.3-0.8c0.2-0.2,0.3-0.5,0.4-0.8c0.9,0.5,1.6,1.5,2,2.5c0,0.3,0.1,0.8,0,1.1h0.8
		c-0.1-0.3-0.1-0.4,0-0.6c0.2-1.3,1-2.3,1.9-3.1c0.3-0.2,0.2,0.2,0.3,0.4c0.3,0.7,1,1.2,1.7,1.4c0.8,0.1,1.5-0.1,2-0.7
		c0.2-0.5,0.5-1.1,0.1-1.6c-0.3-0.3-0.6-0.5-1-0.5c-0.5,0-0.8,0.3-1,0.7c0,0.1,0,0.3,0.1,0.4c0.1,0,0.2,0,0.3-0.1
		c0-0.3,0.3-0.4,0.5-0.6c0.2-0.1,0.4,0,0.6,0.1c0.2,0.2,0.2,0.5,0.3,0.8c0,0.4-0.3,0.8-0.6,0.9c-0.5,0.3-1.3,0.2-1.8-0.2
		c-0.2-0.2-0.4-0.5-0.5-0.8c0-0.3-0.2-0.6,0-0.9c0.8-0.5,1.7-0.9,2.7-1c0.4,0.1,0.7,0.3,1,0.6c0.9,0.9-0.2,2.2,0.4,3.2
		c0.2,0,0.2-0.3,0.3-0.5c0.3-0.7-0.1-1.4-0.2-2.1c-0.2-0.4-0.4-0.8-0.7-1.1c0.1,0,0.1,0,0.2,0c0.4,0.3,0.8,0.6,1.2,1
		c0.6,0.9,0.8,2,0.7,3.1c-0.2,0.6-0.8,0.8-1.2,1c-0.2,0.2-0.4,0.4-0.5,0.6c0.2,0.1,0.5,0,0.8-0.1c0.4-0.1,0.6-0.6,0.8-0.8V35
		c0,0.2-0.1,0.5,0.1,0.5c0.1-0.3,0.1-0.7,0.2-1c0.2,0.3,0.3,0.6,0.4,1c0.2,0.3,0.5,0.8,0.9,0.9c0.1-0.2,0-0.3-0.1-0.5
		c-0.1-0.5-0.5-0.7-0.7-1.1c-0.7-0.9-0.4-2.3-0.9-3.4c-0.2-0.5-0.6-1-1-1.4l0.1-0.1c0.9,0,1.7,0.3,2.6,0.5c1,0.5,2.6,0.4,3,1.8
		c0.2,0.8,0.5,1.5,1.1,2.1h0.1c0.1-0.2,0.1-0.5,0-0.7c-0.1-1-1-1.2-1.4-2l0.1-0.1c0.5,0.1,0.9,0.2,1.4,0.4c1.5,0.4,2.6,1.9,2.8,3.4
		c0,1.1-0.2,2.2-0.7,3.3c-0.1,0.2-0.3,0.3-0.2,0.5c0.2-0.2,0.2-0.4,0.4-0.6c0.6-1,1-2.5,0.6-3.8c0-0.2-0.3-0.4-0.2-0.7
		c0.1,0.1,0.2,0.1,0.3,0.2c0.1-0.1,0.3-0.1,0.4-0.2c0-0.1,0.1-0.2,0-0.3c-0.1-0.2-0.4-0.2-0.5-0.1c-0.1,0.1-0.2,0.3-0.2,0.4
		c-0.2-0.3-0.4-0.8-0.7-1v-0.1c0.9,0.3,1.6,0.7,2.5,0.9c0.2,0.1,0.4,0.2,0.7,0.2c0.7,0.3,1.5,0.4,2.3,0.6c0.6-0.1,1,0.2,1.6,0.1l0,0
		l0,0c-0.2-0.3-0.7,0-0.9-0.2c-1.3-0.1-2.6-0.5-3.7-0.9c0-0.1,0.1,0,0.2,0c0.2-0.1,0.3-0.3,0.3-0.5c-0.1-0.1-0.3-0.2-0.4-0.2
		c-0.1,0.1-0.3,0.2-0.3,0.3c0,0.2,0.1,0.3,0.3,0.4c0,0-0.1,0-0.2,0l-2-1c-0.2,0-0.4-0.2-0.6-0.2c-0.4-0.2-0.9-0.4-1.3-0.6
		c-1.2-0.6-2.6-1-3.8-1.4l-0.8-0.2L40,29.7c-1.6-0.4-3.8-0.4-5.2,0.4c-0.2-0.1-0.4,0.3-0.5,0.1c0.4-1,1.5-1.4,2.6-1.4l22.2-0.2
		c0.9,0,1.7-0.3,2.2-1.1C61.6,27.1,61.7,26.3,61.4,25.8L61.4,25.8L61.4,25.8z M31.2,32.8C31.1,33,31,33.2,31,33.5h-0.1
		c0.1-0.3-0.2-0.5-0.1-0.8c-0.1-0.2-0.1-0.5-0.3-0.8c-0.2-0.3,0.1-0.4,0.3-0.6c0.3,0.1,0.4,0.4,0.5,0.6
		C31.5,32.3,31.2,32.5,31.2,32.8L31.2,32.8L31.2,32.8z M51.8,31.6c0,0.1,0.1,0.1,0.1,0.2c-0.7,0.6-1.6,0.8-2.5,0.8
		c-0.1,0-0.2,0.1-0.2,0.1c-0.1,0-0.1-0.1,0-0.1C49.7,31.8,50.8,31.4,51.8,31.6L51.8,31.6z M48.7,31.9c0.1,0.3-0.1,0.4-0.3,0.5
		c-0.2,0-0.3-0.2-0.4-0.3c-0.1-0.1,0.1-0.2,0.1-0.3C48.3,31.7,48.6,31.7,48.7,31.9L48.7,31.9L48.7,31.9z M12.7,32
		c0,0.1,0,0.3-0.1,0.4c-0.1,0.1-0.2,0.1-0.3,0.1s-0.2-0.2-0.2-0.3c0-0.2,0.1-0.3,0.2-0.4C12.4,31.8,12.6,31.8,12.7,32L12.7,32z
		 M9.3,33.2L9.3,33.2c-0.4,0.2-0.9,0.1-1.2-0.2c-0.3-0.4-0.6-0.8-1-1c0-0.1-0.1-0.1,0-0.2C8,31.9,8.6,32.7,9.3,33.2L9.3,33.2
		L9.3,33.2z M54.7,31.9c-0.4,0.6-0.8,1.4-1.6,1.7c-0.1,0-0.2,0.2-0.4,0.1c0.3-0.7,1-1.5,1.7-1.8C54.5,31.9,54.6,31.9,54.7,31.9
		C54.7,32,54.7,32,54.7,31.9z M13.8,32.2c0,0.2-0.1,0.2-0.3,0.4c-0.1,0-0.2-0.1-0.3-0.2c-0.1-0.2,0.1-0.3,0.2-0.4
		C13.6,31.9,13.7,32.1,13.8,32.2L13.8,32.2z M57.1,32.3c-0.2,0.2-0.1,0.6-0.3,0.9c-0.4,0.4-0.7,0.9-1.3,1c-0.1-0.2,0.1-0.4,0.2-0.5
		c0.3-0.6,0.6-1.2,1.2-1.5L57.1,32.3L57.1,32.3z M3.5,32.5c0.1,0.1,0.1,0.3,0,0.4C3.3,33,3.2,33,3,33c-0.2-0.1-0.2-0.3-0.2-0.5
		C3,32.3,3.3,32.2,3.5,32.5L3.5,32.5L3.5,32.5z M2.4,32.7c0,0.1,0.1,0.2,0.1,0.3c-0.1,0.1-0.2,0.2-0.3,0.2c-0.2,0-0.3-0.1-0.4-0.2
		c0-0.2,0-0.3,0.2-0.4C2.1,32.5,2.3,32.6,2.4,32.7L2.4,32.7L2.4,32.7z M4.6,32.8c0,0.2,0.1,0.4-0.2,0.5C4.2,33.4,4,33.2,3.9,33
		c0-0.2,0.1-0.3,0.2-0.4C4.3,32.6,4.5,32.7,4.6,32.8L4.6,32.8z M7.7,33.1c0,0.1,0,0.3-0.1,0.4c-0.1,0.1-0.3,0.1-0.4,0
		c0-0.1-0.2-0.2-0.1-0.3C7.2,33,7.2,33,7.4,32.9C7.5,33,7.6,32.9,7.7,33.1L7.7,33.1z M58.9,33.2c-0.1,0.1-0.1,0.3-0.3,0.3
		s-0.3,0-0.4-0.2c-0.1-0.2,0.1-0.3,0.2-0.4C58.6,32.9,58.8,33,58.9,33.2L58.9,33.2L58.9,33.2z M55.4,33.3c0,0.2-0.2,0.3-0.2,0.3
		c-0.3,0.1-0.5-0.1-0.6-0.3c0-0.2,0.2-0.3,0.3-0.3C55.2,33,55.3,33.1,55.4,33.3L55.4,33.3L55.4,33.3z M57.8,33.2
		c0,0.1-0.1,0.3-0.2,0.3c-0.2,0.1-0.3,0-0.5-0.1c-0.2-0.2,0-0.3,0.1-0.4C57.4,33,57.7,33,57.8,33.2L57.8,33.2L57.8,33.2z M3,33.6
		c0,0.2,0,0.4-0.2,0.5c-0.2,0-0.4-0.1-0.4-0.3s0-0.3,0.2-0.4C2.7,33.3,2.8,33.4,3,33.6L3,33.6L3,33.6z M54.5,33.8
		c0.1,0.2-0.1,0.4-0.3,0.5c-0.2,0-0.2,0-0.4-0.1c-0.1-0.1-0.2-0.3,0-0.4C54,33.5,54.3,33.6,54.5,33.8L54.5,33.8L54.5,33.8z M13.2,34
		c0.1,0.2-0.1,0.2-0.2,0.4c-0.1,0-0.2,0.1-0.3,0s-0.2-0.2-0.1-0.4c0.1-0.1,0.1-0.2,0.2-0.2C13,33.7,13.1,33.9,13.2,34L13.2,34
		L13.2,34z M58.5,34.1c0,0.1-0.1,0.2-0.1,0.3c-0.1,0.1-0.3,0.1-0.4,0.1c-0.2-0.1-0.2-0.2-0.2-0.4c0.1-0.1,0.1-0.2,0.3-0.2
		C58.3,33.9,58.5,33.9,58.5,34.1L58.5,34.1L58.5,34.1z M57.4,34.2c0.1,0.2-0.1,0.3-0.3,0.4c-0.1,0-0.2,0-0.2,0.1
		c0.5,0.2,0.8,0.7,1.2,1v0.2c-0.7,0-1.4-0.2-1.9-0.7c-0.1-0.1-0.4-0.1-0.5-0.2c0.2-0.2,0.7-0.2,1-0.2c0.2-0.3-0.3-0.5,0-0.7
		c0.1,0,0.2-0.1,0.3-0.1C57.2,34,57.3,34.1,57.4,34.2L57.4,34.2L57.4,34.2z M49.6,34.2c0,0.1-0.1,0.2-0.1,0.3
		c-0.1,0.1-0.3,0.1-0.4,0.1c-0.1-0.1-0.2-0.2-0.2-0.4C49.1,33.9,49.6,33.9,49.6,34.2L49.6,34.2L49.6,34.2z M7.3,34.9
		c-0.1,0.2-0.1,0.3-0.3,0.3c-0.2,0-0.3-0.1-0.3-0.2c0-0.1,0.1-0.2,0.1-0.3C6.9,34.5,7.3,34.6,7.3,34.9L7.3,34.9z M8.8,34.6
		c0,0.3-0.3,0.4-0.4,0.7c-0.3,0.6-0.8,1.2-1.5,1.3c-0.1-0.2,0.2-0.4,0.3-0.5C7.5,35.4,8.1,35.1,8.8,34.6L8.8,34.6L8.8,34.6z
		 M49.2,34.9c0,0.2-0.2,0.4-0.3,0.4c-0.2,0.1-0.3-0.1-0.4-0.2c-0.2-0.2-0.1-0.3,0-0.5C48.7,34.5,49,34.7,49.2,34.9L49.2,34.9z
		 M50.3,35c0,0.2-0.1,0.4-0.3,0.4c0-0.1-0.1,0-0.2,0c-0.1-0.1-0.2-0.2-0.2-0.3c0.1-0.1,0.1-0.2,0.3-0.3C50,34.8,50.3,34.8,50.3,35
		L50.3,35z M11.7,35c0,0.2-0.1,0.3-0.3,0.4c-0.2,0-0.3-0.1-0.4-0.2c0-0.2,0.1-0.3,0.2-0.4C11.5,34.7,11.6,34.9,11.7,35L11.7,35z
		 M13,35.1c-0.1,0.2-0.2,0.3-0.4,0.3c-0.1,0-0.3-0.1-0.3-0.2c0-0.2,0.1-0.3,0.3-0.4C12.8,34.8,13,34.9,13,35.1L13,35.1L13,35.1z
		 M54.4,36.4c0.1,0.1,0.3,0.2,0.2,0.3c-0.3,0.1-0.5-0.2-0.8-0.3c-0.5-0.5-0.8-1-1-1.5c0.2-0.2,0.4,0,0.5,0.1
		C53.8,35.4,54.2,35.9,54.4,36.4L54.4,36.4z M55.1,35.1c0.1,0.1,0,0.3,0,0.4c-0.1,0.2-0.4,0.2-0.5,0.1c-0.1-0.1-0.3-0.3-0.2-0.4
		c0.1-0.2,0.2-0.2,0.4-0.2C54.9,34.9,55,35,55.1,35.1L55.1,35.1L55.1,35.1z M14.8,35.6c0,0.2,0.1,0.4-0.1,0.5c-0.2,0-0.4,0-0.4-0.2
		c-0.1-0.2,0.1-0.3,0.2-0.4C14.6,35.4,14.7,35.5,14.8,35.6L14.8,35.6L14.8,35.6z M50.3,36.8c0.3,0.4,0.4,0.9,0.5,1.4
		c-0.1,0.1,0.1,0.3,0,0.4h-0.1c-0.9-0.6-1-1.5-1.4-2.3c-0.1,0-0.1-0.1-0.1-0.2c0.2-0.2,0.3,0.2,0.5,0.2L50.3,36.8L50.3,36.8
		L50.3,36.8z M17.2,36.2L17.2,36.2c-0.7,0.6-1.8,0.9-2.7,0.4c0-0.1,0-0.2,0.1-0.2c0.6-0.2,1.1-0.4,1.7-0.4L17.2,36.2L17.2,36.2
		L17.2,36.2z M12.9,36.3c-0.6,0.4-1.2,1.2-2,1.4c-0.1,0.1-0.2,0.3-0.4,0.2c0.3-1,1.5-1.6,2.5-1.7L12.9,36.3L12.9,36.3L12.9,36.3z
		 M49.2,37.1c0.1,0.2,0,0.4-0.2,0.4c-0.1,0.1-0.3,0.1-0.4,0c-0.2-0.1-0.2-0.2-0.2-0.4c0.1-0.1,0.2-0.2,0.3-0.2
		C48.9,37,49.1,37,49.2,37.1L49.2,37.1z M47.6,37.2c-0.1,0.3-0.4,0.4-0.7,0.5c-0.6,0.2-1.2-0.1-1.8-0.2c0-0.2,0.2-0.1,0.3-0.2
		c0.6-0.1,1.3-0.3,1.9-0.1C47.4,37.2,47.5,37.1,47.6,37.2L47.6,37.2z M12.9,37.8c-0.1,0.1-0.1,0.2-0.2,0.3c-0.1,0.1-0.3,0-0.4-0.1
		c0-0.1-0.2-0.2-0.1-0.3c0-0.1,0.2-0.2,0.3-0.2C12.7,37.5,12.9,37.6,12.9,37.8L12.9,37.8L12.9,37.8z M14,37.9
		c-0.1,0.1-0.1,0.3-0.3,0.4c-0.1,0-0.3,0-0.4-0.1c-0.1-0.1-0.1-0.2-0.1-0.4c0-0.1,0.2-0.1,0.3-0.2C13.8,37.6,13.9,37.8,14,37.9
		L14,37.9z M48.8,38.1c0,0.2-0.1,0.2-0.1,0.4c-0.1,0.1-0.3,0.2-0.4,0.1c-0.1,0-0.2-0.2-0.2-0.3c-0.1-0.2,0.1-0.2,0.1-0.4
		C48.4,37.8,48.7,37.8,48.8,38.1L48.8,38.1L48.8,38.1z M49.6,38.1c0,0.1,0.1,0.2,0,0.3s-0.2,0.3-0.4,0.2c-0.1,0-0.2-0.1-0.2-0.2
		c-0.1-0.2,0-0.5,0.2-0.5C49.4,37.9,49.5,38,49.6,38.1L49.6,38.1z M13.3,38.7c0,0.2,0,0.4-0.2,0.5c-0.2,0-0.5,0-0.6-0.2
		c0-0.2,0-0.4,0.2-0.5C13,38.4,13.3,38.4,13.3,38.7L13.3,38.7L13.3,38.7z M14.4,38.6c0,0.5-0.1,1.2-0.7,1.5
		c-0.3,0.1-0.6,0.3-0.9,0.2v-0.1C13.2,39.5,14,39.1,14.4,38.6L14.4,38.6L14.4,38.6z M45.8,39c0.1,0.1-0.1,0.2-0.1,0.3
		c-0.1,0.1-0.3,0.1-0.5,0s-0.2-0.2-0.1-0.4c0-0.1,0.2-0.2,0.2-0.2C45.6,38.7,45.7,38.9,45.8,39L45.8,39L45.8,39z M16.3,39.9
		c0.3,0.4,0.1,1,0.3,1.5c-0.3,0-0.5-0.3-0.7-0.5c-0.4-0.6-0.4-1.3-0.6-2c0-0.1,0.1-0.1,0.1,0c0.3,0.2,0.5,0.5,0.7,0.8
		C16.2,39.8,16.3,39.8,16.3,39.9L16.3,39.9L16.3,39.9z M46.8,39.2c0,0.2-0.2,0.2-0.3,0.3c-0.1,0-0.3-0.1-0.4-0.2
		c-0.1-0.2,0.1-0.2,0.2-0.3C46.5,38.9,46.7,39,46.8,39.2L46.8,39.2L46.8,39.2z M49,40.9C49,41,49,41.1,49,40.9L48.8,41
		c-0.5-0.5-1.1-1-1-1.8h0.1C48.4,39.6,49,40.1,49,40.9L49,40.9L49,40.9z M47.6,40.2c0,0.2-0.1,0.3-0.2,0.4c-0.2,0.1-0.5,0-0.6-0.2
		c0-0.2,0.2-0.3,0.3-0.4C47.4,39.9,47.5,40.1,47.6,40.2L47.6,40.2z M46.4,40.7c-0.3,0.7-1,1.1-1.5,1.6c-0.1-0.1-0.1-0.2,0-0.3
		c0.2-0.7,0.8-1.4,1.5-1.7C46.6,40.3,46.3,40.5,46.4,40.7L46.4,40.7z M40.4,22.9c0.2,0,0.4-0.1,0.4-0.3s-0.2-0.3-0.4-0.3
		S40,22.4,40,22.6S40.2,22.9,40.4,22.9L40.4,22.9z M38.9,23.8c0.2,0,0.4-0.1,0.4-0.3s-0.2-0.3-0.4-0.3s-0.4,0.1-0.4,0.3
		S38.7,23.8,38.9,23.8L38.9,23.8z M47.8,41.2c0,0.2-0.2,0.2-0.3,0.3c-0.2,0-0.3-0.1-0.4-0.2c0-0.2,0.1-0.2,0.2-0.3
		C47.5,41,47.7,41.1,47.8,41.2L47.8,41.2L47.8,41.2z M38.1,23.1c0.2,0,0.4-0.1,0.4-0.3s-0.2-0.3-0.4-0.3s-0.4,0.1-0.4,0.3
		S37.9,23.1,38.1,23.1L38.1,23.1z M22.3,23.2c0.2,0,0.4-0.1,0.4-0.3s-0.2-0.3-0.4-0.3s-0.4,0.1-0.4,0.3S22.1,23.2,22.3,23.2
		L22.3,23.2z M3.7,34.1C3.9,34.1,4,34,4,33.8l0,0c0-0.2-0.2-0.3-0.3-0.3s-0.3,0.2-0.3,0.3S3.5,34.1,3.7,34.1L3.7,34.1z M18.1,38.3
		c-0.6-0.4-1.4-0.7-2.1-0.4c-0.2,0.1-0.6,0-0.8,0.2c0.8,0.4,1.9,0.4,2.8,0.3C18,38.4,18.1,38.4,18.1,38.3
		C18.1,38.4,18.1,38.3,18.1,38.3z"/>
	<path class="st0" d="M18.2,38.4c0.1,0.5-0.1,1.2,0.2,1.6c0.3,0.5,0.9,0.6,1.5,0.6c1.7-0.1,3.3-0.6,4.9-1c0.2,0,0.4-0.2,0.7-0.2
		c0.9-0.2,1.8-0.3,2.7-0.4c-0.4,0.5-0.6,1.1-0.8,1.7c-0.2,0.5,0.4,0.6,0.6,0.9c-0.6,0.2-1,0.6-1.5,0.8c-1.2,0-2.2,0.4-3.4,0.5
		c0,0.2,0.4,0.2,0.4,0.4c-0.1,0.2-0.2,0.2-0.4,0.3c0,0.1,0,0.1,0.1,0.2c0.1-0.1,0.4,0,0.5-0.2c0.4,0,0.7-0.1,1.1-0.1
		c0.3-0.1,0.7-0.2,1-0.4c0.4-0.1,0.6-0.4,1-0.5c0.6,0,1.1-0.2,1.6-0.2v0.1L27,44.8c-0.1,0.1,0,0.3,0.1,0.3c0.3,0.1,0.5,0,0.7-0.1
		l1.1-2c0.1-0.7,0.6-1,1.1-1.4c0.1,0,0.2-0.2,0.3,0c-0.4,0.4-0.6,0.9-0.9,1.3c-0.1,0.5-0.2,1.2,0.3,1.7c0.2,0.2,0.6,0.1,0.9,0.2
		c0.7-0.4,1.7,0.2,2.2-0.5c0.3-0.1,0.4,0.3,0.6,0.5c0.3,0.1,0.7,0.4,1,0.2c0-0.2-0.2-0.4-0.4-0.6c-0.2-0.4-0.5-0.7-0.7-1.1
		C33.2,43,33,42.9,33,42.6c0.3,0.1,0.6,0.3,1,0.4c0.3,0.1,0.7,0.1,1,0.3c0.2,0.3,0.6,0.5,1,0.7c0.5,0.2,1,0.3,1.5,0.5
		c0.2,0,0.5,0.2,0.6,0c-0.1-0.1-0.2-0.2-0.3-0.2c-0.1-0.2,0.3-0.1,0.5-0.3c0-0.1-0.1-0.1-0.2-0.1c-0.3-0.1-1-0.2-1.1-0.3
		c-0.2,0-0.4-0.1-0.7-0.2c-1.1,0-1.8-1-2.7-1.4c0.2-0.2,0.5-0.3,0.7-0.6s0.2-0.7,0.1-1c-0.2-0.6-0.9-0.5-1.4-0.8l0.1-0.1
		c0.7,0,1.4,0.1,2,0.3c1.8,0.2,3.5,0.9,5.4,1c1,0,2.3,0.1,2.9-1l0.3-1.8c0.2-1,0.9-1.8,0.8-2.9l0,0l0,0c-0.2-0.6-0.7-1-1.3-1.2
		c-0.6-0.1-1.2,0-1.7,0.4c-0.7,0.5-0.2,1.5-0.2,2.2c0,0.2,0,0.3-0.1,0.3c-2.8-0.2-5.3-0.9-8-1.2c-0.6-0.1-1.3-0.1-1.9-0.2l-0.8-0.1
		c-2.4,0.1-4.7,0.2-7,0.8c-0.5,0.2-1,0.2-1.5,0.4c-0.3-0.1-0.6,0.2-1,0.1l-0.6,0.1c-0.1,0-0.1,0-0.2,0c-0.3-0.8,0.6-1.3,0.3-2
		c-0.2-0.4-0.7-0.9-1.3-0.8c-0.6-0.1-1.2,0.3-1.5,0.8c-0.4,1,0.1,1.9,0.3,2.9C18.1,37.7,18.2,38.2,18.2,38.4z M24,43.6l-0.3-0.2
		c0.1-0.2,0.4-0.1,0.6-0.2c0.5-0.2,1.1-0.3,1.6-0.2C25.4,43.4,24.6,43.4,24,43.6L24,43.6L24,43.6z M35.8,43.3c0.5,0.2,1.4,0.4,2,0.5
		c-0.1,0.3-0.5,0-0.5,0.4c-0.6-0.2-1.3-0.3-1.7-0.8C35.7,43.3,35.7,43.3,35.8,43.3L35.8,43.3L35.8,43.3z M18,35.2
		c0.1-0.3,0.1-0.7,0.5-1C19,34,19.6,34,20,34.3c0.1,0.1,0.2,0.2,0.3,0.4c0.1,0.3-0.1,0.7-0.3,0.9h-0.2c0-0.3,0-0.6,0.1-0.9
		c0-0.2-0.2-0.2-0.4-0.3c-0.3-0.1-0.6,0.1-0.9,0.2c-0.2,0.2-0.4,0.5-0.2,0.8c0.1,0.2,0,0.5,0.1,0.7l-0.1,0.1
		C18.3,35.9,18,35.6,18,35.2L18,35.2z M18.9,35.7c0.3,0.2,0.7,0.1,1,0.2c0.1,0.2,0.1,0.5-0.1,0.7c-0.3-0.1-0.7,0-0.9-0.3
		C19,36.1,18.9,35.9,18.9,35.7L18.9,35.7L18.9,35.7z M18.8,35.1c0.1-0.2,0-0.4,0.2-0.4c0.1,0,0.3,0,0.4,0.1c0,0.2,0,0.5-0.1,0.7
		C19.1,35.5,18.9,35.3,18.8,35.1L18.8,35.1z M27.7,41.2c-0.1-0.7,0.2-1.2,0.6-1.7c0.3-0.1,0.6-0.1,0.8,0c-0.5,0.1-1.1,0.2-1.2,0.9
		c0,0.2-0.1,0.4,0.1,0.6c0.2,0.4,0.7,0.2,1,0.5c0,0.1-0.1,0.2-0.2,0.2C28.4,41.5,28.1,41.5,27.7,41.2L27.7,41.2L27.7,41.2z
		 M27.1,42.5c0.5-0.2,0.9-0.6,1.4-0.4C28.1,42.4,27.5,42.5,27.1,42.5L27.1,42.5z M28.9,42.7c-0.3,0.6-0.6,1.2-0.9,1.8
		c0,0.1-0.2,0.1-0.3,0.1c0-0.3,0.3-0.5,0.4-0.7c0.4-0.5,0.5-1.1,1-1.6C29.1,42.5,28.9,42.5,28.9,42.7L28.9,42.7L28.9,42.7z
		 M29.3,41.6L29.3,41.6L29.3,41.6L29.3,41.6L29.3,41.6C29.4,41.6,29.3,41.6,29.3,41.6L29.3,41.6z M29.2,41.1c-0.3,0-0.6-0.1-0.9-0.2
		c-0.2-0.2,0-0.4,0-0.6c0.3-0.4,1-0.6,1.4-0.2C29.6,40.4,29.4,40.8,29.2,41.1L29.2,41.1z M29.6,41.1c0.1-0.2,0.2-0.6,0.3-0.8
		C29.9,40.5,29.7,40.9,29.6,41.1L29.6,41.1z M29.8,39.5c-0.2-0.1-0.4-0.3-0.6-0.3c0.2-0.1,0.5-0.1,0.7,0
		C30,39.3,29.8,39.4,29.8,39.5L29.8,39.5z M30,40.1L30,40.1v-0.2l0,0V40.1L30,40.1z M30,41c0-0.1,0-0.2,0.1-0.3s0.2,0.1,0.2,0.1
		C30.3,40.9,30.1,41,30,41L30,41L30,41z M30.3,39.8c0.1-0.3,0.1-0.5,0.3-0.7c0.2,0,0.4,0,0.5,0.1c0,0.4,0.5,0.9,0,1.2
		c-0.2,0.1-0.4,0.2-0.6,0.1C30.3,40.3,30.2,40.1,30.3,39.8L30.3,39.8z M31.7,39.3c0-0.2,0.2,0,0.2-0.1h0.6
		C32.2,39.2,31.9,39.9,31.7,39.3L31.7,39.3L31.7,39.3z M32.6,39.5c-0.2,0.1-0.4,0.3-0.6,0.4C32.1,39.7,32.4,39.5,32.6,39.5
		L32.6,39.5z M31.8,40.7L31.8,40.7L31.8,40.7L31.8,40.7L31.8,40.7z M31.9,41.9L31.9,41.9l-0.4-0.2C31.6,41.6,31.8,41.7,31.9,41.9
		L31.9,41.9z M31.4,41.3c0,0,0.1,0,0.2,0H31.4z M31.1,41c0.1-0.1,0.2-0.3,0.3-0.3c0,0,0,0,0,0.1C31.3,40.8,31.2,40.9,31.1,41
		L31.1,41z M30.7,40.9L30.7,40.9L30.7,40.9C30.8,40.9,30.7,40.9,30.7,40.9L30.7,40.9L30.7,40.9z M30.7,41.7c0.2-0.3,0.5,0.2,0.6,0.4
		c0.3,0.4,1,0.8,0.7,1.4c-0.4,0.3-0.9,0-1.3,0.3c-0.2,0-0.6,0-0.7-0.2C30.2,42.9,30.4,42.2,30.7,41.7L30.7,41.7L30.7,41.7z M30.2,42
		l0.1-0.2c-0.1,0.5-0.4,0.9-0.6,1.4C29.6,42.8,30,42.4,30.2,42L30.2,42L30.2,42z M31,44.3c-0.4,0-0.9,0.2-1.2-0.1
		c0-0.2-0.1-0.2-0.1-0.4c0.3-0.1,0.6,0.2,0.9,0c0.4,0,0.9-0.1,1.3,0c0.2,0.1,0.5-0.3,0.6,0.1C32.3,44.5,31.5,44.1,31,44.3L31,44.3
		L31,44.3z M32.1,41.5L32.1,41.5L32.1,41.5L32.1,41.5L32.1,41.5z M32.3,42.7c0,0.2,0.2,0.3,0.1,0.4C32.3,43.1,32.2,42.9,32.3,42.7
		L32.3,42.7z M32.8,43.9L32.8,43.9c-0.2,0-0.2-0.2-0.1-0.4C32.8,43.6,32.9,43.8,32.8,43.9L32.8,43.9L32.8,43.9z M33.7,44.3
		c0,0.1-0.1,0.1-0.2,0c-0.6-0.7-0.8-1.5-1.2-2.3h0.1L33.7,44.3L33.7,44.3L33.7,44.3z M34.4,42.6L34.4,42.6c-0.6,0.1-1-0.2-1.4-0.5
		V42C33.6,42,34,42.3,34.4,42.6L34.4,42.6z M33.9,40c0.2,0.1,0.2,0.3,0.3,0.5c0,0.4-0.2,0.8-0.6,0.9c-0.2,0.1-0.5,0.2-0.7,0.1
		c0.5,0,1-0.2,1.1-0.7L33.9,40L33.9,40L33.9,40z M33.5,40c0.1,0.3,0.3,0.5,0.2,0.8c-0.2,0.4-0.6,0.4-0.9,0.4c-0.2,0-0.3,0-0.4-0.1
		c0-0.1,0-0.1-0.1-0.2c0.1-0.2-0.4-0.5-0.1-0.7C32.5,39.9,33.2,39.3,33.5,40L33.5,40L33.5,40z M43.1,38.6c-0.2,0.2,0,0.5-0.2,0.7
		c0,0.3-0.3,0.5-0.5,0.7c-2.2,0.5-4.5-0.3-6.7-0.7c-3-0.7-6.6-0.9-9.7-0.2l-4.3,1c-0.9,0.1-1.8,0.2-2.6,0c-0.7-0.3-0.4-1.2-0.6-1.8
		c0-0.5-0.1-0.9-0.1-1.3c-0.1-0.2-0.1-0.3-0.1-0.5c0.3,0,0.6,0.2,0.9,0.3c1.6,0.3,3-0.2,4.5-0.5c1.4-0.3,2.9-0.5,4.4-0.7
		c1.7,0,3.5-0.1,5.1,0.2c0.5,0,1,0.2,1.5,0.2l3.1,0.5c0.2,0.1,0.4,0.1,0.6,0.1c1.7,0.3,3.6,0.8,5.2,0C43.5,37.3,43.3,37.9,43.1,38.6
		L43.1,38.6L43.1,38.6z M42.6,36.2c0,0.3-0.3,0.2-0.4,0.3h-0.5c-0.1-0.2-0.1-0.4-0.1-0.5C42,36.1,42.3,36.1,42.6,36.2L42.6,36.2
		L42.6,36.2z M42.4,35.8c0.2-0.2-0.1-1.4,0.5-0.6c0,0.2,0,0.4-0.1,0.5C42.7,35.7,42.6,35.9,42.4,35.8L42.4,35.8z M44,35.6
		c-0.2,0.3-0.4,0.6-0.8,0.7c0-0.5,0.4-0.8,0.3-1.3c-0.2-0.4-0.7-0.5-1.2-0.4c-0.2,0.1-0.1,0.3-0.2,0.5L42,35.7
		c-0.4,0-0.4-0.3-0.5-0.6c0-0.4,0.2-0.8,0.6-1c0.3-0.2,0.8-0.1,1.1,0c0.2,0.1,0.5,0.2,0.6,0.4C44.1,34.8,44,35.2,44,35.6L44,35.6
		L44,35.6z M24.7,36.8c-0.2,0.1-0.3,0.1-0.2,0.3l0.2,1c0,0.2,0.1,0.5-0.1,0.7c-0.1,0.2-0.5,0.3-0.7,0.4c-0.2,0-0.5,0.1-0.8,0
		c-0.2-0.1-0.3-0.2-0.4-0.5l-0.2-1.1c-0.1-0.3-0.2-0.2-0.4-0.2v-0.1l1.3-0.3v0.1c-0.2,0.1-0.4,0.1-0.3,0.4l0.2,1.1
		c0,0.2,0.1,0.6,0.7,0.5c0.7-0.2,0.5-0.6,0.5-0.8l-0.2-1c0-0.2-0.1-0.3-0.4-0.2V37L24.7,36.8L24.7,36.8L24.7,36.8L24.7,36.8z
		 M26.5,37c-0.1-0.2-0.4-0.5-0.9-0.4c-0.2,0-0.4,0.2-0.3,0.4c0,0.2,0.1,0.2,0.5,0.3l0.6,0.1c0.1,0,0.5,0.1,0.5,0.5
		c0.1,0.3-0.1,0.7-0.8,0.9c-0.4,0.1-0.5,0-0.7,0c-0.1,0-0.1,0.1-0.1,0.1h-0.1L25,38.1h0.1c0.1,0.3,0.4,0.6,0.9,0.5s0.4-0.4,0.4-0.5
		c0-0.2-0.2-0.2-0.5-0.3h-0.3C25,37.7,25,37.5,25,37.3s0-0.7,0.7-0.8c0.3-0.1,0.5,0,0.6,0s0.1-0.1,0.1-0.1h0.1L26.5,37L26.5,37
		L26.5,37L26.5,37z M29.1,38.3l-1.4,0.1v-0.1c0.3,0,0.4-0.1,0.3-0.3l-0.2-1.7c-0.3,0-0.7,0.1-0.7,0.6H27v-0.6l2.3-0.2l0.1,0.7h-0.1
		c-0.1-0.5-0.5-0.5-0.8-0.5l0.2,1.7C28.7,38.2,28.8,38.2,29.1,38.3L29.1,38.3L29.1,38.3L29.1,38.3z M32.3,38.3h-0.8l-0.8-1h-0.1v0.6
		c0,0.3,0.1,0.3,0.3,0.3v0.1h-1.3v-0.1c0.3,0,0.3,0,0.3-0.3v-1.4c0-0.3-0.1-0.3-0.3-0.3V36h1.2c0.3,0,1.1,0,1.1,0.6
		c0,0.4-0.4,0.5-0.6,0.5l0.8,0.9C32.1,38.2,32.2,38.2,32.3,38.3L32.3,38.3L32.3,38.3z M30.6,37.1c0.5,0,0.7-0.1,0.7-0.5
		c0-0.3-0.1-0.5-0.5-0.5c-0.2,0-0.2,0-0.2,0.1V37.1L30.6,37.1L30.6,37.1z M34.4,38l-0.6-1.8h-0.1l-1.1,1.7c-0.1,0.2-0.2,0.3-0.4,0.3
		v0.1l0.8,0.1v-0.1c-0.1,0-0.3-0.1-0.3-0.2l0.2-0.4l0.9,0.1c0,0.1,0.1,0.4,0.1,0.5s-0.1,0.1-0.3,0.1v0.1l1.2,0.2l0,0v-0.1
		C34.6,38.5,34.6,38.4,34.4,38z M33.7,37.7L33,37.6l0.5-0.7L33.7,37.7L33.7,37.7z M37,39l-2.2-0.4v-0.1c0.2,0,0.3,0,0.4-0.2l0.3-1.5
		c0-0.2-0.1-0.2-0.3-0.3v-0.1l1.3,0.2v0.1c-0.3,0-0.4-0.1-0.5,0.2l-0.3,1.5c0,0.2,0,0.2,0.3,0.2c0.6,0.1,0.8-0.1,1.1-0.5h0.1L37,39
		L37,39L37,39z M38.5,39.4l-1.3-0.3V39c0.2,0,0.4,0,0.4-0.2l0.3-1.5c0-0.2-0.1-0.2-0.3-0.3v-0.1l1.3,0.3v0.1c-0.2,0-0.4-0.1-0.4,0.2
		L38.2,39C38.2,39.2,38.3,39.2,38.5,39.4L38.5,39.4L38.5,39.4z M40.8,39.1l-0.7-1.8H40L39,39c-0.1,0.2-0.2,0.3-0.4,0.3v0.1l0.8,0.1
		v-0.1c-0.1,0-0.3,0-0.3-0.2c0,0,0.1-0.2,0.2-0.4l0.9,0.1c0,0.1,0.1,0.4,0.1,0.5s-0.1,0.1-0.3,0.1v0.1l1.2,0.1l0,0v-0.1
		C41,39.6,41,39.5,40.8,39.1z M40.1,38.9l-0.8-0.1l0.4-0.8L40.1,38.9L40.1,38.9z M21.3,39.7L21.3,39.7l1.2-0.1l0,0v-0.1
		c-0.2,0-0.3-0.1-0.5-0.4l-1-1.5h-0.1l-0.6,1.9c-0.1,0.2-0.1,0.4-0.3,0.4V40l0.8-0.1v-0.1c-0.1,0-0.3,0-0.3-0.1c0,0,0-0.2,0.1-0.4
		l0.9-0.1c0.1,0.1,0.2,0.3,0.2,0.4C21.6,39.6,21.5,39.6,21.3,39.7z M20.6,39.1l0.3-0.8l0.5,0.7L20.6,39.1z"/>
</g>
<g>
	<rect x="67.3" y="28.2" class="st0" width="178.8" height="0.6"/>
	<path class="st1" d="M72.4,20.1h-2.9l-0.3,0.8C69,21.1,69,21.4,69,21.5c0,0.2,0.1,0.4,0.3,0.5c0.1,0.1,0.4,0.1,0.8,0.1v0.2h-2.8
		v-0.2c0.3,0,0.5-0.2,0.7-0.4c0.2-0.2,0.4-0.6,0.7-1.3l3-6.7h0.1l3,6.9c0.3,0.6,0.5,1.1,0.7,1.2c0.1,0.1,0.3,0.2,0.6,0.2v0.2h-4V22
		h0.2c0.3,0,0.6,0,0.7-0.1s0.1-0.2,0.1-0.3c0-0.1,0-0.1,0-0.2c0,0-0.1-0.2-0.2-0.5L72.4,20.1L72.4,20.1L72.4,20.1z M72.2,19.6
		L71,16.7l-1.3,2.9H72.2z M81.3,16.7v4.5c0,0.4,0,0.7,0.1,0.8s0.2,0.2,0.5,0.2v0.2h-2.3v-0.8c-0.3,0.3-0.6,0.6-0.8,0.7
		s-0.6,0.2-0.9,0.2s-0.6-0.1-0.9-0.3s-0.4-0.4-0.5-0.7s-0.1-0.7-0.1-1.4v-2.3c0-0.4,0-0.7-0.1-0.8c-0.1-0.1-0.2-0.2-0.5-0.2v-0.2H78
		v3.9c0,0.4,0,0.7,0.1,0.8s0.1,0.2,0.2,0.3c0.1,0.1,0.2,0.1,0.3,0.1c0.1,0,0.3,0,0.4-0.1c0.2-0.1,0.4-0.3,0.6-0.6v-3.1
		c0-0.4,0-0.7-0.1-0.8c-0.1-0.1-0.2-0.2-0.5-0.2v-0.2H81.3L81.3,16.7z M85.9,16.5l0.1,2h-0.2c-0.2-0.6-0.5-1-0.8-1.2
		S84.5,17,84.2,17c-0.2,0-0.3,0.1-0.4,0.2s-0.2,0.2-0.2,0.4c0,0.1,0,0.2,0.1,0.3c0.1,0.2,0.5,0.5,1.1,0.9s1,0.8,1.2,1
		c0.2,0.3,0.3,0.6,0.3,1c0,0.3-0.1,0.7-0.2,0.9c-0.2,0.3-0.4,0.5-0.7,0.7s-0.6,0.2-1,0.2c-0.3,0-0.6-0.1-1.1-0.3l-0.2-0.1
		c-0.1,0-0.2,0.1-0.3,0.3h-0.2l-0.1-2.1h0.2c0.2,0.5,0.4,1,0.8,1.2c0.3,0.3,0.6,0.4,0.9,0.4c0.2,0,0.4-0.1,0.5-0.2s0.2-0.3,0.2-0.4
		c0-0.2-0.1-0.4-0.2-0.5s-0.4-0.4-0.8-0.6c-0.6-0.4-1-0.8-1.2-1c-0.3-0.3-0.4-0.7-0.4-1.1s0.2-0.9,0.4-1.2c0.3-0.4,0.8-0.5,1.3-0.5
		c0.3,0,0.6,0.1,0.9,0.2c0.1,0.1,0.2,0.1,0.3,0.1c0.1,0,0.1,0,0.2,0C85.6,16.8,85.7,16.7,85.9,16.5L85.9,16.5L85.9,16.5z M89,14.6
		v2.1h1.4v0.6H89v3.5c0,0.3,0,0.5,0,0.6s0.1,0.2,0.2,0.2s0.2,0.1,0.2,0.1c0.3,0,0.5-0.2,0.8-0.6l0.2,0.1c-0.3,0.8-0.9,1.2-1.6,1.2
		c-0.3,0-0.7-0.1-0.9-0.3c-0.2-0.2-0.4-0.4-0.5-0.7c0-0.1-0.1-0.5-0.1-1.1v-3.1h-0.8V17c0.5-0.4,1-0.8,1.3-1.1
		c0.4-0.4,0.7-0.9,1-1.4L89,14.6L89,14.6z M93.2,16.7V18c0.4-0.6,0.7-1,1-1.2s0.6-0.3,0.8-0.3c0.2,0,0.4,0.1,0.6,0.2
		s0.2,0.3,0.2,0.6c0,0.3-0.1,0.5-0.2,0.6s-0.3,0.2-0.5,0.2s-0.4-0.1-0.6-0.2l-0.3-0.2h-0.1c-0.1,0-0.2,0-0.3,0.1
		c-0.2,0.1-0.3,0.3-0.4,0.6c-0.1,0.4-0.2,0.9-0.2,1.3v1.7c0,0.2,0,0.4,0.1,0.5s0.1,0.2,0.2,0.2s0.3,0.1,0.5,0.1v0.2h-3.1v-0.2
		c0.2,0,0.4-0.1,0.5-0.2s0.1-0.4,0.1-0.9v-3.2c0-0.3,0-0.5-0.1-0.6c0-0.1-0.1-0.2-0.2-0.2S91,17,90.8,17v-0.2L93.2,16.7L93.2,16.7z
		 M98.9,21.6c-0.7,0.6-1.3,0.9-1.9,0.9c-0.3,0-0.6-0.1-0.8-0.3c-0.2-0.2-0.3-0.5-0.3-0.8c0-0.4,0.2-0.8,0.6-1.2s1.2-0.8,2.5-1.4
		v-0.6c0-0.4,0-0.7-0.1-0.8c0-0.1-0.1-0.2-0.3-0.3S98.3,17,98.2,17c-0.3,0-0.5,0.1-0.7,0.2c-0.1,0.1-0.2,0.2-0.2,0.3
		c0,0.1,0.1,0.2,0.2,0.3c0.2,0.2,0.2,0.4,0.2,0.5c0,0.2-0.1,0.4-0.2,0.5c-0.2,0.1-0.4,0.2-0.6,0.2c-0.3,0-0.5-0.1-0.7-0.2
		c-0.2-0.2-0.3-0.3-0.3-0.5c0-0.3,0.1-0.6,0.3-0.9s0.6-0.5,1-0.6s0.9-0.2,1.3-0.2c0.5,0,1,0.1,1.3,0.4c0.3,0.2,0.5,0.5,0.6,0.8
		c0.1,0.2,0.1,0.6,0.1,1.2v2.2c0,0.3,0,0.4,0,0.5s0.1,0.1,0.1,0.1h0.1c0.1,0,0.2-0.1,0.3-0.2l0.2,0.1c-0.2,0.3-0.4,0.5-0.6,0.7
		s-0.5,0.2-0.8,0.2s-0.6-0.1-0.8-0.2C99.1,22.2,98.9,21.9,98.9,21.6L98.9,21.6L98.9,21.6z M98.9,21.1v-1.9c-0.5,0.3-0.9,0.6-1.1,0.9
		c-0.2,0.2-0.2,0.4-0.2,0.7c0,0.2,0.1,0.4,0.2,0.5s0.2,0.2,0.4,0.2C98.4,21.5,98.6,21.4,98.9,21.1L98.9,21.1z M103.9,14.1v7.2
		c0,0.4,0.1,0.7,0.1,0.8c0.1,0.1,0.3,0.2,0.6,0.2v0.2h-3.1v-0.2c0.2,0,0.4-0.1,0.6-0.2c0.1-0.1,0.1-0.3,0.1-0.8v-6
		c0-0.4-0.1-0.7-0.1-0.8c-0.1-0.1-0.3-0.2-0.6-0.2v-0.2L103.9,14.1L103.9,14.1z M106.6,13.9c0.3,0,0.5,0.1,0.7,0.3s0.3,0.4,0.3,0.7
		s-0.1,0.5-0.3,0.7c-0.2,0.2-0.4,0.3-0.7,0.3c-0.3,0-0.5-0.1-0.7-0.3s-0.3-0.4-0.3-0.7s0.1-0.5,0.3-0.7
		C106.1,14,106.3,13.9,106.6,13.9L106.6,13.9L106.6,13.9z M107.4,16.7v4.6c0,0.4,0.1,0.7,0.1,0.8c0.1,0.1,0.3,0.2,0.6,0.2v0.2H105
		v-0.2c0.2,0,0.4-0.1,0.6-0.2c0.1-0.1,0.1-0.3,0.1-0.8v-3.4c0-0.4-0.1-0.7-0.1-0.8c-0.1-0.1-0.3-0.2-0.6-0.2v-0.2H107.4L107.4,16.7z
		 M111.5,21.6c-0.7,0.6-1.3,0.9-1.9,0.9c-0.3,0-0.6-0.1-0.8-0.3c-0.2-0.2-0.3-0.5-0.3-0.8c0-0.4,0.2-0.8,0.6-1.2s1.2-0.8,2.5-1.4
		v-0.6c0-0.4,0-0.7-0.1-0.8c0-0.1-0.1-0.2-0.3-0.3s-0.3-0.1-0.4-0.1c-0.3,0-0.5,0.1-0.7,0.2c-0.1,0.1-0.2,0.2-0.2,0.3
		c0,0.1,0.1,0.2,0.2,0.3c0.2,0.2,0.2,0.4,0.2,0.5c0,0.2-0.1,0.4-0.2,0.5c-0.2,0.1-0.4,0.2-0.6,0.2c-0.3,0-0.5-0.1-0.7-0.2
		c-0.2-0.2-0.3-0.3-0.3-0.5c0-0.3,0.1-0.6,0.3-0.9c0.2-0.3,0.6-0.5,1-0.6s0.9-0.2,1.3-0.2c0.5,0,1,0.1,1.3,0.4
		c0.3,0.2,0.5,0.5,0.6,0.8c0.1,0.2,0.1,0.6,0.1,1.2v2.2c0,0.3,0,0.4,0,0.5s0.1,0.1,0.1,0.1h0.1c0.1,0,0.2-0.1,0.3-0.2l0.2,0.1
		c-0.2,0.3-0.4,0.5-0.6,0.7c-0.2,0.1-0.5,0.2-0.8,0.2s-0.6-0.1-0.8-0.2C111.6,22.2,111.5,21.9,111.5,21.6L111.5,21.6L111.5,21.6z
		 M111.5,21.1v-1.9c-0.5,0.3-0.9,0.6-1.1,0.9c-0.2,0.2-0.2,0.4-0.2,0.7c0,0.2,0.1,0.4,0.2,0.5s0.2,0.2,0.4,0.2
		C111,21.5,111.2,21.4,111.5,21.1L111.5,21.1z M116.4,16.7v0.8c0.3-0.3,0.6-0.5,0.8-0.7c0.3-0.1,0.6-0.2,0.9-0.2s0.7,0.1,0.9,0.3
		c0.2,0.2,0.4,0.5,0.5,0.8c0.1,0.2,0.1,0.7,0.1,1.4v2.2c0,0.4,0,0.7,0.1,0.8s0.2,0.2,0.5,0.2v0.2h-2.9v-0.2c0.2,0,0.4-0.1,0.5-0.3
		c0.1-0.1,0.1-0.4,0.1-0.8v-2.6c0-0.5,0-0.8-0.1-0.9s-0.1-0.2-0.2-0.3c-0.1-0.1-0.2-0.1-0.3-0.1c-0.3,0-0.7,0.2-1,0.8v3.1
		c0,0.4,0,0.7,0.1,0.8c0.1,0.1,0.2,0.2,0.4,0.2v0.2h-2.9v-0.2c0.2,0,0.4-0.1,0.5-0.2s0.1-0.4,0.1-0.8V18c0-0.4,0-0.7-0.1-0.8
		c-0.1-0.1-0.2-0.2-0.5-0.2v-0.2L116.4,16.7L116.4,16.7z M131.6,13.9v2.9h-0.2c-0.3-0.8-0.7-1.4-1.2-1.8s-1.1-0.6-1.8-0.6
		s-1.1,0.2-1.6,0.5s-0.7,0.8-0.9,1.5c-0.2,0.6-0.3,1.3-0.3,1.9c0,0.8,0.1,1.5,0.3,2.1c0.2,0.6,0.5,1,0.9,1.3s0.9,0.4,1.5,0.4
		c0.2,0,0.4,0,0.6-0.1c0.2,0,0.4-0.1,0.6-0.2v-1.7c0-0.3,0-0.5-0.1-0.6c0-0.1-0.1-0.2-0.3-0.3c-0.1-0.1-0.3-0.1-0.5-0.1h-0.2v-0.2
		h4.1v0.2c-0.3,0-0.5,0.1-0.6,0.1c-0.1,0.1-0.2,0.2-0.3,0.3c0,0.1-0.1,0.3-0.1,0.6v1.7c-0.5,0.2-1.1,0.4-1.7,0.5
		c-0.6,0.1-1.2,0.2-1.8,0.2c-0.8,0-1.4-0.1-2-0.3c-0.5-0.2-1-0.5-1.4-0.9s-0.7-0.8-0.9-1.2c-0.3-0.6-0.4-1.2-0.4-1.9
		c0-1.3,0.4-2.3,1.3-3.2s2-1.3,3.3-1.3c0.4,0,0.8,0,1.1,0.1c0.2,0,0.5,0.1,0.9,0.3l0.7,0.2c0.1,0,0.2,0,0.3-0.1s0.2-0.2,0.3-0.5
		L131.6,13.9L131.6,13.9z M135.6,16.5c0.5,0,1,0.1,1.4,0.4s0.8,0.6,1,1.1s0.3,1,0.3,1.6c0,0.8-0.2,1.5-0.6,2c-0.5,0.7-1.2,1-2.1,1
		s-1.5-0.3-2-0.9s-0.7-1.3-0.7-2.1c0-0.8,0.2-1.5,0.7-2.1C134.2,16.8,134.8,16.5,135.6,16.5L135.6,16.5L135.6,16.5z M135.7,17
		c-0.2,0-0.4,0.1-0.5,0.2s-0.2,0.5-0.3,0.9c0,0.5-0.1,1.1-0.1,1.9c0,0.4,0,0.9,0.1,1.2c0,0.3,0.1,0.5,0.3,0.7s0.3,0.2,0.5,0.2
		s0.3,0,0.5-0.1s0.3-0.3,0.3-0.6c0.1-0.4,0.1-1.2,0.1-2.4c0-0.7,0-1.2-0.1-1.4c-0.1-0.3-0.2-0.5-0.3-0.6C136,17,135.8,17,135.7,17
		L135.7,17L135.7,17z M141.1,22.6l-1.9-4.5c-0.2-0.5-0.4-0.9-0.6-1c-0.1-0.1-0.2-0.2-0.4-0.2v-0.2h3.1v0.2c-0.2,0-0.3,0-0.4,0.1
		c-0.1,0.1-0.1,0.2-0.1,0.3c0,0.1,0.1,0.4,0.3,0.9l0.9,2.2l0.8-1.9c0.2-0.5,0.3-0.9,0.3-1.1c0-0.1-0.1-0.2-0.1-0.3s-0.2-0.1-0.5-0.1
		v-0.2h1.9V17c-0.2,0-0.3,0.1-0.4,0.2c-0.1,0.1-0.3,0.4-0.5,1l-1.9,4.5L141.1,22.6L141.1,22.6z M148.8,19.4h-3.2
		c0,0.8,0.2,1.4,0.6,1.8c0.3,0.3,0.6,0.5,1,0.5c0.2,0,0.5-0.1,0.7-0.2s0.4-0.4,0.6-0.8l0.2,0.1c-0.3,0.6-0.7,1.1-1,1.4
		c-0.4,0.3-0.8,0.4-1.3,0.4c-0.9,0-1.5-0.3-1.9-1c-0.4-0.5-0.5-1.2-0.5-2c0-1,0.3-1.7,0.8-2.3c0.5-0.6,1.1-0.9,1.8-0.9
		c0.6,0,1.1,0.2,1.5,0.7C148.5,17.7,148.7,18.4,148.8,19.4L148.8,19.4L148.8,19.4z M147.3,18.9c0-0.7,0-1.1-0.1-1.4
		s-0.2-0.4-0.3-0.6c-0.1-0.1-0.2-0.1-0.3-0.1c-0.2,0-0.4,0.1-0.5,0.3c-0.2,0.4-0.4,0.9-0.4,1.5v0.2L147.3,18.9L147.3,18.9z
		 M151.5,16.7V18c0.4-0.6,0.7-1,1-1.2s0.6-0.3,0.8-0.3s0.4,0.1,0.6,0.2s0.2,0.3,0.2,0.6c0,0.3-0.1,0.5-0.2,0.6s-0.3,0.2-0.5,0.2
		s-0.4-0.1-0.6-0.2l-0.3-0.2h-0.1c-0.1,0-0.2,0-0.3,0.1c-0.2,0.1-0.3,0.3-0.4,0.6c-0.1,0.4-0.2,0.9-0.2,1.3v1.7c0,0.2,0,0.4,0.1,0.5
		s0.1,0.2,0.2,0.2c0.1,0,0.3,0.1,0.5,0.1v0.2h-3.1v-0.2c0.2,0,0.4-0.1,0.5-0.2s0.1-0.4,0.1-0.9v-3.2c0-0.3,0-0.5-0.1-0.6
		c0-0.1-0.1-0.2-0.2-0.2c-0.1,0-0.2-0.1-0.4-0.1v-0.2L151.5,16.7L151.5,16.7z M156.8,16.7v0.8c0.3-0.3,0.6-0.5,0.9-0.7
		c0.3-0.1,0.6-0.2,0.9-0.2c0.3,0,0.7,0.1,0.9,0.3c0.2,0.2,0.4,0.5,0.5,0.8c0.1,0.2,0.1,0.7,0.1,1.4v2.2c0,0.4,0,0.7,0.1,0.8
		s0.2,0.2,0.5,0.2v0.2h-2.9v-0.2c0.2,0,0.4-0.1,0.5-0.3c0.1-0.1,0.1-0.4,0.1-0.8v-2.6c0-0.5,0-0.8-0.1-0.9s-0.1-0.2-0.2-0.3
		c-0.1-0.1-0.2-0.1-0.3-0.1c-0.4,0-0.7,0.2-1,0.8v3.1c0,0.4,0,0.7,0.1,0.8c0.1,0.1,0.2,0.2,0.4,0.2v0.2h-2.9v-0.2
		c0.2,0,0.4-0.1,0.5-0.2s0.1-0.4,0.1-0.8V18c0-0.4,0-0.7-0.1-0.8c-0.1-0.1-0.2-0.2-0.5-0.2v-0.2L156.8,16.7L156.8,16.7z M163.5,16.7
		v0.8c0.3-0.3,0.6-0.6,0.9-0.7c0.3-0.1,0.6-0.2,0.9-0.2c0.4,0,0.7,0.1,0.9,0.3s0.4,0.4,0.6,0.8c0.3-0.4,0.6-0.6,0.9-0.8
		c0.3-0.2,0.6-0.2,0.9-0.2c0.4,0,0.7,0.1,0.9,0.3c0.2,0.2,0.4,0.4,0.5,0.7c0.1,0.3,0.1,0.7,0.1,1.3v2.4c0,0.4,0,0.7,0.1,0.8
		c0.1,0.1,0.2,0.2,0.5,0.2v0.2h-3v-0.2c0.2,0,0.4-0.1,0.5-0.3c0.1-0.1,0.1-0.4,0.1-0.8v-2.5c0-0.5,0-0.8-0.1-1
		c0-0.1-0.1-0.2-0.2-0.3c-0.1-0.1-0.2-0.1-0.3-0.1c-0.2,0-0.4,0.1-0.5,0.2s-0.4,0.3-0.6,0.6v3.1c0,0.4,0,0.7,0.1,0.8
		c0.1,0.1,0.3,0.2,0.5,0.2v0.2h-3v-0.2c0.2,0,0.3,0,0.4-0.1c0.1-0.1,0.2-0.2,0.2-0.3c0-0.1,0.1-0.3,0.1-0.7v-2.5c0-0.5,0-0.9-0.1-1
		s-0.1-0.2-0.2-0.3c-0.1-0.1-0.2-0.1-0.3-0.1c-0.2,0-0.3,0-0.4,0.1c-0.2,0.1-0.4,0.3-0.6,0.6v3.1c0,0.4,0,0.7,0.1,0.8
		c0.1,0.1,0.2,0.2,0.5,0.2v0.2h-3v-0.2c0.2,0,0.4-0.1,0.5-0.2s0.1-0.4,0.1-0.8V18c0-0.4,0-0.7-0.1-0.8c-0.1-0.1-0.2-0.2-0.5-0.2
		v-0.2L163.5,16.7L163.5,16.7z M176,19.4h-3.2c0,0.8,0.2,1.4,0.6,1.8c0.3,0.3,0.6,0.5,1,0.5c0.2,0,0.5-0.1,0.7-0.2s0.4-0.4,0.6-0.8
		l0.2,0.1c-0.3,0.6-0.7,1.1-1,1.4c-0.4,0.3-0.8,0.4-1.3,0.4c-0.9,0-1.5-0.3-1.9-1c-0.4-0.5-0.5-1.2-0.5-2c0-1,0.3-1.7,0.8-2.3
		c0.5-0.6,1.1-0.9,1.8-0.9c0.6,0,1.1,0.2,1.5,0.7C175.7,17.7,175.9,18.4,176,19.4L176,19.4L176,19.4z M174.5,18.9
		c0-0.7,0-1.1-0.1-1.4s-0.2-0.4-0.3-0.6c-0.1-0.1-0.2-0.1-0.3-0.1c-0.2,0-0.4,0.1-0.5,0.3c-0.2,0.4-0.4,0.9-0.4,1.5v0.2L174.5,18.9
		L174.5,18.9z M178.6,16.7v0.8c0.3-0.3,0.6-0.5,0.9-0.7c0.3-0.1,0.6-0.2,0.9-0.2c0.3,0,0.7,0.1,0.9,0.3c0.2,0.2,0.4,0.5,0.5,0.8
		c0.1,0.2,0.1,0.7,0.1,1.4v2.2c0,0.4,0,0.7,0.1,0.8s0.2,0.2,0.5,0.2v0.2h-2.9v-0.2c0.2,0,0.4-0.1,0.5-0.3c0.1-0.1,0.1-0.4,0.1-0.8
		v-2.6c0-0.5,0-0.8-0.1-0.9s-0.1-0.2-0.2-0.3c-0.1-0.1-0.2-0.1-0.3-0.1c-0.3,0-0.7,0.2-1,0.8v3.1c0,0.4,0,0.7,0.1,0.8
		c0.1,0.1,0.2,0.2,0.4,0.2v0.2h-2.9v-0.2c0.2,0,0.4-0.1,0.5-0.2s0.1-0.4,0.1-0.8V18c0-0.4,0-0.7-0.1-0.8c-0.1-0.1-0.2-0.2-0.5-0.2
		v-0.2L178.6,16.7L178.6,16.7z M184.9,14.6v2.1h1.4v0.6h-1.4v3.5c0,0.3,0,0.5,0,0.6s0.1,0.2,0.2,0.2s0.2,0.1,0.2,0.1
		c0.3,0,0.5-0.2,0.8-0.6l0.2,0.1c-0.3,0.8-0.9,1.2-1.6,1.2c-0.3,0-0.7-0.1-0.9-0.3c-0.2-0.2-0.4-0.4-0.5-0.7c0-0.1-0.1-0.5-0.1-1.1
		v-3.1h-0.8V17c0.5-0.4,1-0.8,1.3-1.1c0.4-0.4,0.7-0.9,1-1.4L184.9,14.6L184.9,14.6z"/>
	<path class="st0" d="M67.3,41.6v-0.2h0.2c0.2,0,0.4,0,0.5-0.1s0.2-0.2,0.3-0.3c0-0.1,0.1-0.3,0.1-0.7v-5c0-0.4,0-0.6-0.1-0.7
		s-0.1-0.2-0.2-0.2c-0.1-0.1-0.3-0.1-0.5-0.1h-0.2V34h3.4c0.9,0,1.6,0.1,2.2,0.4c0.6,0.3,1.2,0.8,1.5,1.4c0.3,0.6,0.5,1.3,0.5,2.1
		c0,0.5-0.1,1-0.3,1.5s-0.4,0.8-0.7,1.1s-0.6,0.5-0.9,0.7s-0.8,0.3-1.3,0.4c-0.2,0-0.6,0.1-1.1,0.1L67.3,41.6L67.3,41.6z M70.2,34.5
		v5.9c0,0.3,0,0.5,0,0.6s0.1,0.1,0.2,0.2c0.1,0.1,0.2,0.1,0.4,0.1c0.6,0,1.1-0.2,1.4-0.6c0.4-0.6,0.7-1.5,0.7-2.7
		c0-1-0.2-1.8-0.5-2.3c-0.2-0.5-0.6-0.8-0.9-0.9C71.2,34.5,70.8,34.5,70.2,34.5L70.2,34.5z M80,38.8h-2.9c0,0.7,0.2,1.2,0.6,1.7
		c0.3,0.3,0.6,0.5,0.9,0.5c0.2,0,0.4-0.1,0.6-0.2s0.4-0.3,0.6-0.7l0.2,0.1c-0.3,0.6-0.6,1-0.9,1.2s-0.7,0.4-1.2,0.4
		c-0.8,0-1.4-0.3-1.8-0.9c-0.3-0.5-0.5-1.1-0.5-1.8c0-0.9,0.2-1.6,0.7-2.1s1-0.8,1.7-0.8c0.5,0,1,0.2,1.4,0.7S80,38,80,38.8L80,38.8
		z M78.6,38.4c0-0.6,0-1-0.1-1.2s-0.2-0.4-0.3-0.5c-0.1-0.1-0.2-0.1-0.3-0.1c-0.2,0-0.3,0.1-0.5,0.3c-0.2,0.3-0.3,0.8-0.3,1.4v0.2
		L78.6,38.4L78.6,38.4z M82.6,41.1v2c0,0.3,0,0.5,0.1,0.5s0.1,0.2,0.2,0.2s0.3,0.1,0.5,0.1v0.2h-3v-0.2c0.2,0,0.4-0.1,0.5-0.2
		C81,43.6,81,43.4,81,43v-5.5c0-0.4,0-0.6-0.1-0.7s-0.2-0.2-0.5-0.2v-0.2h2.2v0.7c0.2-0.3,0.4-0.5,0.6-0.6c0.3-0.2,0.6-0.3,0.9-0.3
		c0.4,0,0.8,0.1,1.1,0.4c0.3,0.2,0.6,0.6,0.7,1C86,38,86,38.5,86,39s-0.1,1-0.2,1.5c-0.2,0.4-0.4,0.8-0.7,1
		c-0.3,0.2-0.7,0.3-1.1,0.3c-0.3,0-0.6-0.1-0.8-0.2C83,41.5,82.8,41.3,82.6,41.1L82.6,41.1L82.6,41.1z M82.6,40.5
		c0.3,0.5,0.7,0.7,1,0.7c0.2,0,0.4-0.1,0.5-0.3c0.2-0.3,0.3-0.9,0.3-1.8s-0.1-1.5-0.3-1.8C84,37.1,83.8,37,83.5,37
		c-0.4,0-0.7,0.3-0.9,0.8V40.5L82.6,40.5z M89.7,40.9c-0.6,0.6-1.2,0.8-1.7,0.8c-0.3,0-0.5-0.1-0.8-0.3c-0.2-0.2-0.3-0.4-0.3-0.7
		c0-0.4,0.2-0.8,0.5-1.1s1.1-0.8,2.2-1.3v-0.5c0-0.4,0-0.6-0.1-0.8s-0.1-0.2-0.2-0.3s-0.3-0.1-0.4-0.1c-0.2,0-0.4,0-0.6,0.2
		c-0.1,0.1-0.1,0.1-0.1,0.2c0,0.1,0.1,0.2,0.2,0.3c0.1,0.2,0.2,0.3,0.2,0.5s-0.1,0.3-0.2,0.5s-0.3,0.2-0.5,0.2s-0.4-0.1-0.6-0.2
		c-0.2-0.1-0.2-0.3-0.2-0.5c0-0.3,0.1-0.5,0.3-0.8s0.5-0.4,0.9-0.6s0.8-0.2,1.2-0.2c0.5,0,0.9,0.1,1.2,0.3s0.5,0.4,0.6,0.7
		c0.1,0.2,0.1,0.5,0.1,1.1v2c0,0.2,0,0.4,0,0.5s0.1,0.1,0.1,0.1h0.1c0.1,0,0.2-0.1,0.3-0.2l0.2,0.1c-0.2,0.3-0.4,0.5-0.6,0.6
		s-0.4,0.2-0.7,0.2c-0.3,0-0.5-0.1-0.7-0.2C89.8,41.3,89.7,41.1,89.7,40.9L89.7,40.9L89.7,40.9z M89.7,40.5v-1.8
		c-0.4,0.3-0.8,0.5-1,0.8c-0.1,0.2-0.2,0.4-0.2,0.6c0,0.2,0.1,0.3,0.2,0.5c0.1,0.1,0.2,0.2,0.4,0.2C89.2,40.8,89.5,40.7,89.7,40.5
		L89.7,40.5z M94.6,36.4v1.2c0.3-0.5,0.7-0.9,0.9-1.1s0.5-0.3,0.8-0.3c0.2,0,0.4,0.1,0.5,0.2c0.1,0.1,0.2,0.3,0.2,0.5
		s-0.1,0.4-0.2,0.6s-0.3,0.2-0.4,0.2c-0.2,0-0.4-0.1-0.5-0.2l-0.3-0.2h-0.1c-0.1,0-0.2,0-0.3,0.1c-0.2,0.1-0.3,0.3-0.3,0.5
		c-0.1,0.4-0.2,0.8-0.2,1.2v1.5c0,0.1,0,0.3,0,0.4c0,0.1,0.1,0.2,0.2,0.2s0.2,0.1,0.4,0.1v0.2h-2.8v-0.2c0.2,0,0.4-0.1,0.5-0.2
		s0.1-0.4,0.1-0.8v-2.9c0-0.3,0-0.5,0-0.6s-0.1-0.2-0.2-0.2s-0.2-0.1-0.4-0.1v-0.2L94.6,36.4L94.6,36.4z M99.5,34.5v1.9h1.2v0.5
		h-1.2v3.2c0,0.3,0,0.5,0,0.6s0.1,0.2,0.2,0.2s0.1,0.1,0.2,0.1c0.2,0,0.5-0.2,0.7-0.5l0.2,0.1c-0.3,0.7-0.8,1.1-1.5,1.1
		c-0.3,0-0.6-0.1-0.8-0.3S98.1,41,98,40.8c0-0.1-0.1-0.5-0.1-1V37h-0.7v-0.2c0.5-0.3,0.9-0.7,1.2-1s0.6-0.8,0.9-1.2L99.5,34.5
		L99.5,34.5z M103.3,36.4v0.7c0.3-0.3,0.6-0.5,0.8-0.7s0.5-0.2,0.8-0.2s0.6,0.1,0.8,0.2s0.4,0.4,0.5,0.7c0.3-0.3,0.6-0.6,0.9-0.7
		s0.6-0.2,0.9-0.2c0.4,0,0.7,0.1,0.9,0.2s0.4,0.4,0.4,0.6c0.1,0.3,0.1,0.7,0.1,1.2v2.1c0,0.4,0,0.7,0.1,0.8s0.2,0.2,0.5,0.2v0.2
		h-2.7v-0.2c0.2,0,0.4-0.1,0.5-0.2c0.1-0.1,0.1-0.3,0.1-0.7v-2.2c0-0.5,0-0.8-0.1-0.9s-0.1-0.2-0.2-0.3s-0.2-0.1-0.3-0.1
		c-0.2,0-0.3,0.1-0.5,0.2c-0.2,0.1-0.3,0.3-0.5,0.5v2.8c0,0.4,0,0.6,0.1,0.7c0.1,0.1,0.2,0.2,0.5,0.2v0.2h-2.7v-0.2
		c0.1,0,0.3,0,0.3-0.1c0.1-0.1,0.1-0.1,0.2-0.2s0-0.3,0-0.6v-2.2c0-0.5,0-0.8-0.1-0.9s-0.1-0.2-0.2-0.3s-0.2-0.1-0.3-0.1
		c-0.1,0-0.3,0-0.4,0.1c-0.2,0.1-0.4,0.3-0.6,0.6v2.8c0,0.4,0,0.6,0.1,0.7s0.2,0.2,0.5,0.2v0.2H101v-0.2c0.2,0,0.4-0.1,0.5-0.2
		c0.1-0.1,0.1-0.3,0.1-0.7v-3c0-0.4,0-0.6-0.1-0.7s-0.2-0.2-0.5-0.2v-0.2L103.3,36.4L103.3,36.4z M115,38.8h-2.9
		c0,0.7,0.2,1.2,0.6,1.7c0.3,0.3,0.6,0.5,0.9,0.5c0.2,0,0.4-0.1,0.6-0.2s0.4-0.3,0.6-0.7l0.2,0.1c-0.3,0.6-0.6,1-0.9,1.2
		s-0.7,0.4-1.2,0.4c-0.8,0-1.4-0.3-1.8-0.9c-0.3-0.5-0.5-1.1-0.5-1.8c0-0.9,0.2-1.6,0.7-2.1s1-0.8,1.7-0.8c0.5,0,1,0.2,1.4,0.7
		C114.8,37.3,115,38,115,38.8L115,38.8z M113.6,38.5c0-0.6,0-1-0.1-1.2s-0.2-0.4-0.3-0.5c-0.1-0.1-0.2-0.1-0.3-0.1
		c-0.2,0-0.3,0.1-0.5,0.3c-0.2,0.3-0.3,0.8-0.3,1.4v0.2L113.6,38.5L113.6,38.5z M117.7,36.4v0.7c0.3-0.3,0.5-0.5,0.8-0.6
		s0.5-0.2,0.8-0.2s0.6,0.1,0.8,0.3s0.4,0.4,0.4,0.7c0.1,0.2,0.1,0.6,0.1,1.2v2c0,0.4,0,0.7,0.1,0.8s0.2,0.2,0.5,0.2v0.2h-2.7v-0.2
		c0.2,0,0.3-0.1,0.4-0.2c0.1-0.1,0.1-0.3,0.1-0.7v-2.3c0-0.4,0-0.7-0.1-0.8s-0.1-0.2-0.2-0.3s-0.2-0.1-0.3-0.1
		c-0.3,0-0.6,0.2-0.9,0.7v2.8c0,0.4,0,0.6,0.1,0.8s0.2,0.2,0.4,0.2v0.2h-2.7v-0.2c0.2,0,0.4-0.1,0.5-0.2c0.1-0.1,0.1-0.3,0.1-0.7v-3
		c0-0.4,0-0.6-0.1-0.7s-0.2-0.2-0.5-0.2v-0.2L117.7,36.4L117.7,36.4z M123.9,34.5v1.9h1.2v0.5h-1.2v3.2c0,0.3,0,0.5,0,0.6
		s0.1,0.2,0.2,0.2s0.1,0.1,0.2,0.1c0.2,0,0.5-0.2,0.7-0.5l0.2,0.1c-0.3,0.7-0.8,1.1-1.5,1.1c-0.3,0-0.6-0.1-0.8-0.3
		s-0.4-0.4-0.4-0.6c0-0.1-0.1-0.5-0.1-1V37h-0.7v-0.2c0.5-0.3,0.9-0.7,1.2-1s0.6-0.8,0.9-1.2L123.9,34.5L123.9,34.5z M130.7,36.2
		c0.4,0,0.9,0.1,1.3,0.3c0.4,0.2,0.7,0.6,0.9,1s0.3,0.9,0.3,1.4c0,0.7-0.2,1.4-0.6,1.9c-0.4,0.6-1.1,0.9-1.9,0.9s-1.4-0.3-1.8-0.8
		s-0.6-1.2-0.6-1.9s0.2-1.4,0.6-2S129.9,36.2,130.7,36.2L130.7,36.2z M130.7,36.6c-0.2,0-0.4,0.1-0.5,0.2s-0.2,0.4-0.3,0.8
		s-0.1,1-0.1,1.8c0,0.4,0,0.8,0.1,1.1c0,0.3,0.1,0.5,0.3,0.6s0.3,0.2,0.5,0.2s0.3,0,0.4-0.1c0.1-0.1,0.2-0.3,0.3-0.5
		c0.1-0.3,0.1-1.1,0.1-2.2c0-0.6,0-1.1-0.1-1.3s-0.2-0.4-0.3-0.5C131,36.7,130.9,36.6,130.7,36.6L130.7,36.6L130.7,36.6z M136.2,37
		v3.6c0,0.3,0,0.6,0.1,0.7c0.1,0.1,0.3,0.2,0.7,0.2v0.2h-3.1v-0.2c0.2,0,0.4,0,0.5-0.1s0.2-0.1,0.2-0.2s0.1-0.3,0.1-0.6V37h-0.8
		v-0.5h0.8v-0.7c0-0.5,0.2-1,0.6-1.3c0.4-0.4,0.9-0.5,1.6-0.5c0.5,0,0.8,0.1,1,0.3s0.3,0.4,0.3,0.6c0,0.2-0.1,0.3-0.2,0.4
		c-0.1,0.1-0.3,0.2-0.6,0.2c-0.2,0-0.4,0-0.5-0.2s-0.2-0.2-0.2-0.3c0,0,0-0.1,0-0.2c0-0.1,0-0.1,0-0.2c0-0.1,0-0.1-0.1-0.2
		c-0.1-0.1-0.1-0.1-0.2-0.1c-0.1,0-0.2,0-0.3,0.1s-0.1,0.2-0.1,0.4v1.6h0.8v0.5L136.2,37L136.2,37z M143.1,38v2.3
		c0,0.4,0,0.6,0.1,0.7s0.1,0.2,0.2,0.2s0.3,0.1,0.5,0.1h0.2v0.2h-4v-0.2h0.2c0.2,0,0.4,0,0.5-0.1c0.1,0,0.2-0.1,0.2-0.3
		c0-0.1,0.1-0.3,0.1-0.7v-5c0-0.4,0-0.6-0.1-0.7s-0.1-0.2-0.2-0.2s-0.3-0.1-0.5-0.1h-0.2V34h4v0.2h-0.2c-0.2,0-0.4,0-0.5,0.1
		c-0.1,0-0.2,0.1-0.2,0.3c0,0.1-0.1,0.3-0.1,0.7v2.2h2.7v-2.2c0-0.4,0-0.6-0.1-0.7s-0.1-0.2-0.2-0.2s-0.3-0.1-0.5-0.1h-0.2V34h4v0.2
		h-0.2c-0.2,0-0.4,0-0.5,0.1c-0.1,0-0.2,0.1-0.2,0.3c0,0.1-0.1,0.3-0.1,0.7v5c0,0.4,0,0.6,0.1,0.7s0.1,0.2,0.2,0.2s0.3,0.1,0.5,0.1
		h0.2v0.2h-4v-0.2h0.2c0.2,0,0.4,0,0.5-0.1c0.1,0,0.2-0.1,0.2-0.3c0-0.1,0.1-0.3,0.1-0.7V38H143.1L143.1,38z M153,38.8h-2.9
		c0,0.7,0.2,1.2,0.6,1.7c0.3,0.3,0.6,0.5,0.9,0.5c0.2,0,0.4-0.1,0.6-0.2s0.4-0.3,0.6-0.7l0.2,0.1c-0.3,0.6-0.6,1-0.9,1.2
		s-0.7,0.4-1.2,0.4c-0.8,0-1.4-0.3-1.8-0.9c-0.3-0.5-0.5-1.1-0.5-1.8c0-0.9,0.2-1.6,0.7-2.1s1-0.8,1.7-0.8c0.5,0,1,0.2,1.4,0.7
		S153,38,153,38.8L153,38.8L153,38.8z M151.6,38.5c0-0.6,0-1-0.1-1.2s-0.2-0.4-0.3-0.5s-0.2-0.1-0.3-0.1c-0.2,0-0.4,0.1-0.5,0.3
		c-0.2,0.3-0.3,0.8-0.3,1.4v0.2L151.6,38.5L151.6,38.5z M156.4,40.9c-0.6,0.6-1.2,0.8-1.7,0.8c-0.3,0-0.5-0.1-0.8-0.3
		c-0.2-0.2-0.3-0.4-0.3-0.7c0-0.4,0.2-0.8,0.5-1.1s1.1-0.8,2.2-1.3v-0.5c0-0.4,0-0.6-0.1-0.8s-0.1-0.2-0.2-0.3
		c-0.1-0.1-0.3-0.1-0.4-0.1c-0.2,0-0.4,0-0.6,0.2c-0.1,0.1-0.1,0.1-0.1,0.2c0,0.1,0.1,0.2,0.2,0.3c0.1,0.2,0.2,0.3,0.2,0.5
		s-0.1,0.3-0.2,0.5s-0.3,0.2-0.5,0.2s-0.4-0.1-0.6-0.2c-0.2-0.1-0.2-0.3-0.2-0.5c0-0.3,0.1-0.5,0.3-0.8s0.5-0.4,0.9-0.6
		c0.4-0.1,0.8-0.2,1.2-0.2c0.5,0,0.9,0.1,1.2,0.3s0.5,0.4,0.6,0.7c0.1,0.2,0.1,0.5,0.1,1.1v2c0,0.2,0,0.4,0,0.5s0.1,0.1,0.1,0.1h0.1
		c0.1,0,0.2-0.1,0.3-0.2l0.2,0.1c-0.2,0.3-0.4,0.5-0.6,0.6c-0.2,0.1-0.4,0.2-0.7,0.2s-0.5-0.1-0.7-0.2
		C156.6,41.3,156.4,41.1,156.4,40.9L156.4,40.9z M156.4,40.5v-1.8c-0.4,0.3-0.8,0.5-1,0.8c-0.1,0.2-0.2,0.4-0.2,0.6
		c0,0.2,0.1,0.3,0.2,0.5c0.1,0.1,0.2,0.2,0.4,0.2C156,40.8,156.2,40.7,156.4,40.5L156.4,40.5L156.4,40.5z M161.2,34v6.5
		c0,0.4,0,0.6,0.1,0.7s0.2,0.2,0.5,0.2v0.2H159v-0.2c0.2,0,0.4-0.1,0.5-0.2c0.1-0.1,0.1-0.3,0.1-0.7v-5.4c0-0.4,0-0.6-0.1-0.7
		s-0.2-0.2-0.5-0.2V34H161.2L161.2,34z M164.3,34.5v1.9h1.2v0.5h-1.2v3.2c0,0.3,0,0.5,0,0.6s0.1,0.2,0.1,0.2s0.1,0.1,0.2,0.1
		c0.2,0,0.5-0.2,0.7-0.5l0.2,0.1c-0.3,0.7-0.8,1.1-1.5,1.1c-0.3,0-0.6-0.1-0.8-0.3s-0.4-0.4-0.4-0.6c0-0.1-0.1-0.5-0.1-1V37H162
		v-0.2c0.5-0.3,0.9-0.7,1.2-1c0.3-0.4,0.6-0.8,0.9-1.2L164.3,34.5L164.3,34.5z M168.1,34v3c0.3-0.3,0.6-0.5,0.8-0.6s0.5-0.2,0.8-0.2
		s0.6,0.1,0.8,0.3s0.4,0.4,0.5,0.7c0.1,0.2,0.1,0.7,0.1,1.3v2c0,0.4,0,0.7,0.1,0.8s0.2,0.2,0.4,0.2v0.2H169v-0.2
		c0.2,0,0.3-0.1,0.4-0.2c0.1-0.1,0.1-0.3,0.1-0.7v-2.3c0-0.4,0-0.7-0.1-0.8s-0.1-0.2-0.2-0.3c-0.1-0.1-0.2-0.1-0.3-0.1
		s-0.3,0-0.4,0.2c-0.1,0.1-0.3,0.3-0.5,0.5v2.8c0,0.4,0,0.6,0.1,0.7c0.1,0.1,0.2,0.2,0.4,0.2v0.2h-2.6v-0.2c0.2,0,0.4-0.1,0.5-0.2
		c0.1-0.1,0.1-0.3,0.1-0.7v-5.3c0-0.4,0-0.6-0.1-0.7s-0.2-0.2-0.5-0.2V34H168.1L168.1,34z M177.8,40.9c-0.6,0.6-1.2,0.8-1.7,0.8
		c-0.3,0-0.5-0.1-0.8-0.3c-0.2-0.2-0.3-0.4-0.3-0.7c0-0.4,0.2-0.8,0.5-1.1s1.1-0.8,2.2-1.3v-0.5c0-0.4,0-0.6-0.1-0.8
		s-0.1-0.2-0.2-0.3c-0.1-0.1-0.3-0.1-0.4-0.1c-0.2,0-0.4,0-0.6,0.2c-0.1,0.1-0.1,0.1-0.1,0.2c0,0.1,0.1,0.2,0.2,0.3
		c0.1,0.2,0.2,0.3,0.2,0.5s-0.1,0.3-0.2,0.5s-0.3,0.2-0.5,0.2s-0.4-0.1-0.6-0.2c-0.2-0.1-0.2-0.3-0.2-0.5c0-0.3,0.1-0.5,0.3-0.8
		s0.5-0.4,0.9-0.6c0.4-0.1,0.8-0.2,1.2-0.2c0.5,0,0.9,0.1,1.2,0.3s0.5,0.4,0.6,0.7c0.1,0.2,0.1,0.5,0.1,1.1v2c0,0.2,0,0.4,0,0.5
		s0.1,0.1,0.1,0.1h0.1c0.1,0,0.2-0.1,0.3-0.2l0.2,0.1c-0.2,0.3-0.4,0.5-0.6,0.6c-0.2,0.1-0.4,0.2-0.7,0.2s-0.5-0.1-0.7-0.2
		S177.9,41.1,177.8,40.9L177.8,40.9z M177.8,40.5v-1.8c-0.4,0.3-0.8,0.5-1,0.8c-0.1,0.2-0.2,0.4-0.2,0.6c0,0.2,0.1,0.3,0.2,0.5
		c0.1,0.1,0.2,0.2,0.4,0.2S177.6,40.7,177.8,40.5L177.8,40.5L177.8,40.5z M182.7,36.4v0.7c0.3-0.3,0.5-0.5,0.8-0.6s0.5-0.2,0.8-0.2
		s0.6,0.1,0.9,0.3s0.4,0.4,0.4,0.7c0.1,0.2,0.1,0.6,0.1,1.2v2c0,0.4,0,0.7,0.1,0.8s0.2,0.2,0.5,0.2v0.2h-2.6v-0.2
		c0.2,0,0.3-0.1,0.4-0.2c0.1-0.1,0.1-0.3,0.1-0.7v-2.3c0-0.4,0-0.7,0-0.8s-0.1-0.2-0.2-0.3c-0.1-0.1-0.2-0.1-0.3-0.1
		c-0.3,0-0.6,0.2-0.9,0.7v2.8c0,0.4,0,0.6,0.1,0.8c0.1,0.1,0.2,0.2,0.4,0.2v0.2h-2.6v-0.2c0.2,0,0.4-0.1,0.5-0.2
		c0.1-0.1,0.1-0.3,0.1-0.7v-3c0-0.4,0-0.6-0.1-0.7c-0.1-0.1-0.2-0.2-0.5-0.2v-0.2L182.7,36.4L182.7,36.4z M191.7,34v6v0.7
		c0,0.1,0.1,0.2,0.2,0.3c0.1,0.1,0.2,0.1,0.4,0.1v0.2l-2.2,0.4V41c-0.3,0.3-0.5,0.5-0.7,0.7c-0.2,0.1-0.5,0.2-0.7,0.2
		c-0.7,0-1.2-0.3-1.6-0.9c-0.3-0.5-0.5-1.1-0.5-1.8c0-0.5,0.1-1,0.3-1.5c0.2-0.4,0.5-0.8,0.8-1s0.7-0.3,1.1-0.3c0.2,0,0.5,0,0.7,0.1
		s0.4,0.3,0.6,0.5v-1.6c0-0.4,0-0.6-0.1-0.7c0-0.1-0.1-0.2-0.2-0.2s-0.3-0.1-0.5-0.1V34H191.7L191.7,34z M190.1,37.6
		c-0.3-0.5-0.6-0.8-1-0.8c-0.1,0-0.2,0-0.3,0.1s-0.2,0.3-0.3,0.6s-0.1,0.7-0.1,1.3c0,0.7,0.1,1.2,0.1,1.5s0.2,0.5,0.4,0.7
		c0.1,0.1,0.2,0.1,0.4,0.1c0.3,0,0.6-0.3,0.9-0.8L190.1,37.6L190.1,37.6z M200,39.5h-2.7l-0.3,0.7c-0.1,0.2-0.2,0.5-0.2,0.6
		c0,0.2,0.1,0.4,0.3,0.5c0.1,0.1,0.4,0.1,0.8,0.1v0.2h-2.5v-0.2c0.3,0,0.5-0.2,0.7-0.3s0.4-0.6,0.6-1.2l2.7-6.1h0.1l2.7,6.2
		c0.3,0.6,0.5,1,0.6,1.1s0.3,0.2,0.5,0.2v0.2h-3.7v-0.2h0.1c0.3,0,0.5,0,0.6-0.1s0.1-0.1,0.1-0.3c0-0.1,0-0.1,0-0.2
		c0,0-0.1-0.2-0.2-0.4L200,39.5L200,39.5z M199.8,39.1l-1.1-2.6l-1.2,2.6H199.8z M207.1,36.5h1.8v0.6h-1c0.2,0.2,0.3,0.3,0.4,0.5
		c0.1,0.2,0.1,0.4,0.1,0.6c0,0.4-0.1,0.7-0.3,1s-0.5,0.5-0.9,0.6s-0.7,0.2-0.9,0.2c0,0-0.2,0-0.7,0c-0.2,0-0.3,0.1-0.4,0.2
		s-0.2,0.2-0.2,0.4c0,0.1,0.1,0.2,0.1,0.3s0.3,0.1,0.5,0.1h1c0.8,0,1.3,0.1,1.6,0.2c0.4,0.2,0.6,0.6,0.6,1.1c0,0.3-0.1,0.6-0.3,0.9
		c-0.2,0.3-0.4,0.5-0.8,0.6c-0.5,0.2-1,0.3-1.7,0.3c-0.4,0-0.9,0-1.3-0.1c-0.4-0.1-0.7-0.2-0.8-0.4c-0.2-0.2-0.2-0.3-0.2-0.5
		s0.1-0.3,0.2-0.5s0.4-0.2,0.7-0.3c-0.5-0.2-0.7-0.6-0.7-1c0-0.3,0.1-0.5,0.3-0.8s0.5-0.5,0.9-0.6c-0.5-0.2-0.9-0.4-1.1-0.7
		s-0.3-0.6-0.3-1c0-0.5,0.2-1,0.6-1.3s1-0.6,1.6-0.6C206.4,36.2,206.7,36.3,207.1,36.5L207.1,36.5L207.1,36.5z M205.8,42.4
		c-0.4,0-0.6,0-0.8,0.1s-0.3,0.3-0.3,0.5s0.1,0.4,0.3,0.5s0.6,0.2,1.2,0.2c0.5,0,0.9-0.1,1.2-0.2s0.4-0.3,0.4-0.6
		c0-0.1,0-0.2-0.1-0.2c-0.1-0.1-0.2-0.2-0.5-0.2S206.7,42.4,205.8,42.4L205.8,42.4z M206.2,36.6c-0.2,0-0.4,0.1-0.6,0.3
		s-0.2,0.7-0.2,1.4c0,0.5,0.1,0.9,0.2,1.2s0.3,0.3,0.5,0.3s0.4-0.1,0.6-0.3s0.2-0.6,0.2-1.2c0-0.7-0.1-1.1-0.2-1.4
		C206.6,36.7,206.4,36.6,206.2,36.6L206.2,36.6L206.2,36.6z M213.8,38.8h-2.9c0,0.7,0.2,1.2,0.6,1.7c0.3,0.3,0.6,0.5,0.9,0.5
		c0.2,0,0.4-0.1,0.6-0.2s0.4-0.3,0.6-0.7l0.2,0.1c-0.3,0.6-0.6,1-0.9,1.2s-0.7,0.4-1.2,0.4c-0.8,0-1.4-0.3-1.8-0.9
		c-0.3-0.5-0.5-1.1-0.5-1.8c0-0.9,0.2-1.6,0.7-2.1s1-0.8,1.7-0.8c0.5,0,1,0.2,1.4,0.7S213.8,38,213.8,38.8L213.8,38.8L213.8,38.8z
		 M212.4,38.5c0-0.6,0-1-0.1-1.2s-0.2-0.4-0.3-0.5s-0.2-0.1-0.3-0.1c-0.2,0-0.4,0.1-0.5,0.3c-0.2,0.3-0.3,0.8-0.3,1.4v0.2
		L212.4,38.5L212.4,38.5z M219.4,34v6v0.7c0,0.1,0.1,0.2,0.2,0.3c0.1,0.1,0.2,0.1,0.4,0.1v0.2l-2.2,0.4V41c-0.3,0.3-0.5,0.5-0.7,0.7
		c-0.2,0.1-0.5,0.2-0.7,0.2c-0.7,0-1.2-0.3-1.6-0.9c-0.3-0.5-0.5-1.1-0.5-1.8c0-0.5,0.1-1,0.3-1.5c0.2-0.4,0.5-0.8,0.8-1
		s0.7-0.3,1.1-0.3c0.2,0,0.5,0,0.7,0.1s0.4,0.3,0.6,0.5v-1.6c0-0.4,0-0.6-0.1-0.7c0-0.1-0.1-0.2-0.2-0.2s-0.3-0.1-0.5-0.1V34H219.4
		L219.4,34z M217.9,37.6c-0.3-0.5-0.6-0.8-1-0.8c-0.1,0-0.2,0-0.3,0.1s-0.2,0.3-0.3,0.6s-0.1,0.7-0.1,1.3c0,0.7,0.1,1.2,0.1,1.5
		s0.2,0.5,0.4,0.7c0.1,0.1,0.2,0.1,0.4,0.1c0.3,0,0.6-0.3,0.9-0.8L217.9,37.6L217.9,37.6z M230.6,33.9v2.6h-0.2
		c-0.2-0.7-0.5-1.2-0.9-1.6c-0.4-0.4-1-0.5-1.5-0.5s-0.9,0.1-1.3,0.4s-0.7,0.6-0.9,1.1c-0.2,0.6-0.4,1.2-0.4,1.9s0.1,1.3,0.3,1.8
		c0.2,0.6,0.4,1,0.8,1.3s0.8,0.4,1.4,0.4c0.5,0,0.9-0.1,1.3-0.3s0.8-0.6,1.3-1.1v0.7c-0.4,0.4-0.9,0.8-1.3,1s-1,0.3-1.6,0.3
		c-0.8,0-1.5-0.2-2.2-0.5c-0.6-0.3-1.1-0.8-1.5-1.4s-0.5-1.3-0.5-1.9c0-0.7,0.2-1.4,0.6-2.1s0.9-1.2,1.5-1.5s1.3-0.5,2.1-0.5
		c0.5,0,1.1,0.1,1.7,0.3c0.3,0.1,0.6,0.2,0.6,0.2c0.1,0,0.2,0,0.3-0.1s0.1-0.2,0.2-0.4L230.6,33.9L230.6,33.9z M233.9,40.9
		c-0.6,0.6-1.2,0.8-1.7,0.8c-0.3,0-0.5-0.1-0.8-0.3c-0.2-0.2-0.3-0.4-0.3-0.7c0-0.4,0.2-0.8,0.5-1.1s1.1-0.8,2.2-1.3v-0.5
		c0-0.4,0-0.6-0.1-0.8s-0.1-0.2-0.2-0.3c-0.1-0.1-0.3-0.1-0.4-0.1c-0.2,0-0.4,0-0.6,0.2c-0.1,0.1-0.1,0.1-0.1,0.2
		c0,0.1,0.1,0.2,0.2,0.3c0.1,0.2,0.2,0.3,0.2,0.5s-0.1,0.3-0.2,0.5s-0.3,0.2-0.5,0.2s-0.4-0.1-0.6-0.2c-0.2-0.1-0.2-0.3-0.2-0.5
		c0-0.3,0.1-0.5,0.3-0.8s0.5-0.4,0.9-0.6c0.4-0.1,0.8-0.2,1.2-0.2c0.5,0,0.9,0.1,1.2,0.3s0.5,0.4,0.6,0.7c0.1,0.2,0.1,0.5,0.1,1.1v2
		c0,0.2,0,0.4,0,0.5s0.1,0.1,0.1,0.1h0.1c0.1,0,0.2-0.1,0.3-0.2l0.2,0.1c-0.2,0.3-0.4,0.5-0.6,0.6c-0.2,0.1-0.4,0.2-0.7,0.2
		s-0.5-0.1-0.7-0.2C234.1,41.3,234,41.1,233.9,40.9L233.9,40.9z M233.9,40.5v-1.8c-0.4,0.3-0.8,0.5-1,0.8c-0.1,0.2-0.2,0.4-0.2,0.6
		c0,0.2,0.1,0.3,0.2,0.5c0.1,0.1,0.2,0.2,0.4,0.2C233.5,40.8,233.7,40.7,233.9,40.5L233.9,40.5L233.9,40.5z M238.9,36.4v1.2
		c0.4-0.5,0.6-0.9,0.9-1.1s0.5-0.3,0.8-0.3c0.2,0,0.4,0.1,0.5,0.2c0.1,0.1,0.2,0.3,0.2,0.5s-0.1,0.4-0.2,0.6s-0.3,0.2-0.4,0.2
		c-0.2,0-0.4-0.1-0.5-0.2l-0.3-0.2h-0.1c-0.1,0-0.2,0-0.3,0.1s-0.3,0.3-0.4,0.5c-0.1,0.4-0.2,0.8-0.2,1.2v1.5c0,0.1,0,0.3,0,0.4
		c0,0.1,0.1,0.2,0.2,0.2c0.1,0,0.2,0.1,0.4,0.1v0.2h-2.8v-0.2c0.2,0,0.4-0.1,0.5-0.2s0.1-0.4,0.1-0.8v-2.9c0-0.3,0-0.5,0-0.6
		s-0.1-0.2-0.2-0.2s-0.2-0.1-0.4-0.1v-0.2L238.9,36.4L238.9,36.4z M246.1,38.8h-2.9c0,0.7,0.2,1.2,0.6,1.7c0.3,0.3,0.6,0.5,0.9,0.5
		c0.2,0,0.4-0.1,0.6-0.2s0.4-0.3,0.6-0.7l0.2,0.1c-0.3,0.6-0.6,1-0.9,1.2s-0.7,0.4-1.2,0.4c-0.8,0-1.4-0.3-1.8-0.9
		c-0.3-0.5-0.5-1.1-0.5-1.8c0-0.9,0.2-1.6,0.7-2.1s1-0.8,1.7-0.8c0.5,0,1,0.2,1.4,0.7S246.1,38,246.1,38.8L246.1,38.8L246.1,38.8z
		 M244.7,38.5c0-0.6,0-1-0.1-1.2s-0.2-0.4-0.3-0.5s-0.2-0.1-0.3-0.1c-0.2,0-0.4,0.1-0.5,0.3c-0.2,0.3-0.3,0.8-0.3,1.4v0.2
		L244.7,38.5L244.7,38.5z"/>
</g>
</svg>
